<svg xmlns="http://www.w3.org/2000/svg" direction="ltr" width="1024" height="1024" viewBox="-1233.6188683845603 29835.179808901856 1024 1024" stroke-linecap="round" stroke-linejoin="round" data-color-mode="light" class="tl-container tl-theme__force-sRGB tl-theme__light" style="background-color: transparent;"><defs/><g transform="matrix(1, 0, 0, 1, -1233.6189, 29835.1798)" opacity="1"><g data-lovart-layer-name="SVG 4"><g transform="scale(1, 1)"><g>
<g xmlns="http://www.w3.org/2000/svg" stroke-width="2.00" fill="none" stroke-linecap="butt">
<path stroke="#a1d0f6" vector-effect="non-scaling-stroke" d="   M 314.97 307.69   Q 307.17 307.82 299.41 307.67   C 298.12 307.64 295.27 308.02 294.12 306.85   Q 271.24 283.51 249.29 261.70   Q 242.06 254.51 236.41 248.10   Q 233.84 245.18 230.04 245.22   Q 211.89 245.42 197.00 245.93   A 2.23 2.21 21.1 0 0 195.49 246.59   Q 191.56 250.50 189.50 255.28   A 1.51 1.51 0.0 0 0 190.90 257.38   Q 206.90 257.26 225.99 257.40   Q 228.30 257.41 230.13 259.12   C 238.07 266.51 244.17 273.08 251.67 280.57   Q 276.69 305.52 305.11 334.38   Q 305.51 334.79 305.83 335.96"/>
<path stroke="#808080" vector-effect="non-scaling-stroke" d="   M 305.83 335.96   Q 304.73 343.74 303.63 351.52   Q 301.52 366.42 301.29 381.43"/>
<path stroke="#a1d0f6" vector-effect="non-scaling-stroke" d="   M 301.29 381.43   L 282.14 381.79   A 2.38 2.38 0.0 0 0 281.10 382.05   Q 279.43 382.90 278.15 384.15   Q 268.48 393.65 260.67 401.15   Q 258.99 402.77 257.50 402.76   Q 220.18 402.58 191.30 402.61   A 0.84 0.84 0.0 0 0 190.46 403.45   L 190.46 413.64   A 1.20 1.19 -86.5 0 0 191.50 414.83   Q 193.22 415.05 195.25 415.00   Q 203.10 414.80 261.29 414.81   Q 262.97 414.81 265.21 412.77   Q 274.23 404.55 283.12 395.19   A 4.31 4.29 21.3 0 1 286.16 393.86   L 301.41 393.64"/>
<path stroke="#808080" vector-effect="non-scaling-stroke" d="   M 301.41 393.64   L 301.95 409.53"/>
<path stroke="#a1d0f6" vector-effect="non-scaling-stroke" d="   M 301.95 409.53   Q 297.39 413.87 293.13 418.32   C 280.88 431.11 268.19 443.60 256.74 455.23   Q 254.99 457.00 253.24 457.01   Q 214.42 457.10 184.26 456.90   A 0.60 0.60 0.0 0 0 183.66 457.50   L 183.66 467.82   A 1.23 1.22 -89.8 0 0 184.87 469.05   Q 214.50 469.21 251.50 469.07   C 255.38 469.05 259.38 469.39 261.60 467.09   Q 275.95 452.21 293.81 434.46   Q 295.67 432.61 298.57 429.44   Q 300.94 426.86 303.35 424.43"/>
<path stroke="#808080" vector-effect="non-scaling-stroke" d="   M 303.35 424.43   Q 303.38 427.59 303.69 429.26   Q 305.74 440.00 307.74 450.75   Q 310.71 466.70 318.63 486.80   Q 318.95 487.62 318.98 488.45"/>
<path stroke="#a1d0f6" vector-effect="non-scaling-stroke" d="   M 318.98 488.45   L 270.97 537.29   A 2.00 1.99 -40.6 0 0 270.77 539.85   Q 272.61 542.42 275.47 544.88   Q 278.04 547.09 280.27 544.76   Q 301.81 522.27 324.32 500.04"/>
<path stroke="#808080" vector-effect="non-scaling-stroke" d="   M 324.32 500.04   L 340.85 533.07"/>
<path stroke="#a1d0f6" vector-effect="non-scaling-stroke" d="   M 340.85 533.07   Q 330.34 533.35 319.50 533.45   Q 317.25 533.47 315.84 534.85   Q 303.87 546.67 280.81 570.07   Q 278.82 572.09 275.26 572.08   Q 239.66 572.03 207.95 572.00   A 0.89 0.89 0.0 0 0 207.06 572.89   L 207.06 582.68   A 1.33 1.33 0.0 0 0 208.39 584.01   L 242.41 584.01   A 0.48 0.47 22.4 0 1 242.75 584.82   L 195.52 632.05   A 1.98 1.98 0.0 0 1 194.12 632.63   L 158.70 632.63   A 0.86 0.86 0.0 0 0 157.84 633.49   L 157.84 643.72   A 1.06 1.06 0.0 0 0 158.90 644.78   L 197.36 644.78   A 5.07 5.04 22.3 0 0 200.95 643.29   L 259.57 584.68   A 2.15 2.15 0.0 0 1 261.04 584.05   Q 275.16 583.80 279.30 583.80   Q 282.94 583.81 285.75 581.01   Q 309.96 556.78 314.45 552.20   Q 316.72 549.89 319.79 547.12   C 321.48 545.59 323.12 545.12 325.26 545.17   Q 340.34 545.55 345.83 545.41   A 2.66 2.65 -36.2 0 1 346.82 545.56   L 347.40 545.76"/>
<path stroke="#808080" vector-effect="non-scaling-stroke" d="   M 347.40 545.76   Q 350.20 550.45 352.69 555.28   Q 360.66 570.77 366.84 583.63   C 370.18 590.57 373.79 599.40 375.50 605.25   C 379.34 618.40 381.42 626.83 384.77 633.97   A 5.51 5.40 -59.4 0 1 385.28 636.04   Q 385.63 643.93 384.34 652.21   Q 381.95 667.61 380.21 675.73   Q 374.63 701.89 365.29 724.62   A 1.26 1.26 0.0 0 0 366.01 726.28   Q 377.12 730.47 383.20 732.81   C 389.07 735.07 393.96 737.67 400.78 740.49   Q 406.21 742.74 413.84 746.53   C 452.74 765.89 489.31 790.10 524.76 814.49   Q 534.33 821.07 579.54 853.45   Q 582.48 855.55 585.86 858.62   A 0.64 0.64 0.0 0 0 586.86 858.44   C 593.38 846.02 598.60 831.83 604.71 820.38   Q 614.96 801.18 622.25 790.60   Q 625.55 785.80 627.18 782.10   Q 630.79 773.90 631.01 772.99   Q 635.60 754.13 635.65 753.92   C 638.93 740.82 646.21 730.20 660.97 729.64   Q 670.12 729.29 682.64 730.05   Q 696.65 730.91 710.76 730.75   C 725.34 730.59 740.72 725.66 751.72 715.75   C 762.06 706.43 767.49 690.36 766.67 676.52   Q 766.18 668.12 762.63 656.61   C 761.12 651.71 761.39 648.97 764.29 645.25   Q 768.45 639.90 771.14 634.23   C 774.71 626.69 772.26 620.74 769.08 613.97   A 1.92 1.91 -37.1 0 1 769.37 611.91   C 773.92 606.66 779.96 597.57 777.50 590.50   C 774.61 582.21 771.72 574.19 772.97 568.27   A 4.11 4.10 85.2 0 1 775.46 565.32   C 780.35 563.39 785.62 562.32 790.20 560.04   Q 798.44 555.92 799.33 555.29   Q 815.51 543.87 811.36 525.43   C 809.89 518.86 806.40 513.54 802.44 506.58   C 800.45 503.07 797.72 498.48 798.59 495.06   Q 801.85 482.39 803.28 468.50   C 804.92 452.55 806.27 442.36 806.29 430.01   Q 806.30 425.90 805.60 422.67   A 6.32 6.30 11.9 0 0 803.12 418.88   Q 791.03 410.17 775.73 411.45   A 0.55 0.54 -82.3 0 1 775.18 410.72   Q 777.63 404.06 777.62 397.69   A 12.15 11.96 40.5 0 0 777.46 395.86   Q 777.00 393.21 774.34 385.17   C 765.90 359.63 759.71 342.27 751.82 316.69   Q 748.73 306.69 740.09 290.24   C 739.01 288.20 738.67 287.12 740.09 285.32   Q 745.37 278.61 749.95 270.05   C 755.15 260.33 757.56 249.81 757.75 239.50   Q 757.93 229.57 757.25 224.52   Q 754.70 205.70 744.69 190.86   C 739.78 183.58 734.98 177.16 727.44 172.63   A 0.71 0.70 -54.6 0 0 726.53 172.79   C 724.04 175.85 722.60 177.91 720.02 179.96   C 711.30 186.89 700.39 190.95 689.70 192.90   Q 685.66 193.63 682.31 194.60   A 0.39 0.39 0.0 0 1 681.97 193.91   C 688.43 189.09 692.21 179.61 693.84 172.05   A 0.51 0.51 0.0 0 0 693.10 171.50   Q 691.01 172.59 688.68 173.38   Q 655.86 184.41 620.48 180.17   C 609.46 178.84 594.12 176.61 582.83 174.75   C 555.78 170.30 528.55 167.79 501.52 168.83   Q 483.20 169.53 459.77 174.54   Q 443.62 177.98 430.20 183.94   C 404.96 195.13 377.90 213.63 370.32 241.81   A 4.10 4.09 84.4 0 1 368.18 244.42   C 357.68 249.67 346.59 257.47 338.61 266.52   C 327.42 279.21 320.87 291.61 314.97 307.69"/>
<path stroke="#225077" vector-effect="non-scaling-stroke" d="   M 347.40 545.76   Q 347.46 545.15 348.25 545.16   Q 369.84 545.24 388.60 545.01   A 1.08 1.07 -0.5 0 0 389.66 543.94   L 389.66 533.95   A 1.05 1.05 0.0 0 0 388.61 532.90   L 340.85 533.07"/>
<path stroke="#225077" vector-effect="non-scaling-stroke" d="   M 324.32 500.04   Q 324.23 499.79 324.47 499.50   A 0.38 0.36 -66.5 0 1 324.73 499.39   L 380.32 499.39   A 0.97 0.97 0.0 0 0 381.29 498.42   L 381.29 488.49   A 1.28 1.28 0.0 0 0 380.01 487.21   L 338.24 487.21   A 0.41 0.41 0.0 0 1 337.94 486.51   Q 367.38 456.83 399.47 424.72   C 408.44 415.74 414.94 409.56 419.01 405.02   Q 420.41 403.45 421.76 403.45   Q 457.57 403.38 481.20 403.41   A 0.92 0.91 -0.0 0 0 482.12 402.50   L 482.12 392.21   A 0.80 0.80 0.0 0 0 481.32 391.41   L 418.02 391.41   A 3.38 3.38 0.0 0 0 415.63 392.40   Q 371.30 436.52 319.76 488.27   Q 319.55 488.48 318.98 488.45"/>
<path stroke="#225077" vector-effect="non-scaling-stroke" d="   M 303.35 424.43   L 307.26 421.85   A 4.00 3.95 -61.4 0 1 309.45 421.19   L 322.87 421.19   A 0.81 0.81 0.0 0 0 323.68 420.38   L 323.68 410.03   A 0.65 0.64 0.0 0 0 323.03 409.39   L 301.95 409.53"/>
<path stroke="#225077" vector-effect="non-scaling-stroke" d="   M 301.41 393.64   Q 344.05 393.33 387.00 393.45   Q 390.06 393.46 392.64 390.92   Q 400.80 382.92 407.91 375.33   A 3.58 3.58 0.0 0 1 410.52 374.20   L 454.41 374.20   A 0.74 0.73 90.0 0 0 455.14 373.46   L 455.14 362.57   A 0.51 0.51 0.0 0 0 454.63 362.06   L 406.47 362.06   A 3.70 3.69 22.5 0 0 403.86 363.14   L 385.94 381.06   A 2.97 2.96 -67.2 0 1 383.82 381.93   L 301.29 381.43"/>
<path stroke="#225077" vector-effect="non-scaling-stroke" d="   M 305.83 335.96   Q 306.31 335.72 306.79 336.20   Q 320.20 349.47 334.69 364.26   A 3.71 3.67 -21.8 0 0 337.30 365.36   Q 356.16 365.40 378.97 365.37   C 382.68 365.37 384.28 365.67 386.76 363.27   Q 397.90 352.52 407.67 342.16   Q 410.74 338.91 412.71 338.89   C 420.58 338.81 428.29 338.85 436.66 339.37   A 1.70 1.64 -20.8 0 1 437.69 339.81   Q 438.84 340.87 440.22 341.05   Q 447.94 342.10 454.44 341.85   A 0.68 0.68 0.0 0 0 455.10 341.17   L 455.10 324.80   A 0.84 0.84 0.0 0 0 454.31 323.96   Q 446.19 323.50 439.76 325.05   C 430.75 327.23 422.60 326.95 408.69 326.87   A 4.25 4.21 -67.0 0 0 405.69 328.10   L 379.92 353.87   A 0.65 0.62 -66.6 0 1 379.47 354.06   L 342.00 354.06   A 2.44 2.42 -22.3 0 1 340.28 353.35   L 311.11 324.18   A 0.13 0.03 39.0 0 1 311.07 324.13   L 310.42 323.01"/>
<path stroke="#808080" vector-effect="non-scaling-stroke" d="   M 310.42 323.01   Q 310.29 321.85 310.58 320.67"/>
<path stroke="#225077" vector-effect="non-scaling-stroke" d="   M 310.58 320.67   Q 310.88 319.65 312.25 319.65   Q 337.23 319.65 363.28 319.57   C 365.74 319.56 366.95 319.25 368.58 317.58   Q 377.42 308.48 377.84 308.10   Q 380.73 305.47 382.06 305.46   Q 404.95 305.28 423.02 305.41   Q 425.70 305.43 432.70 305.99   C 439.68 306.55 446.37 308.57 453.83 308.45   A 1.31 1.30 -0.4 0 0 455.12 307.15   L 455.12 290.27   A 0.46 0.46 0.0 0 0 454.63 289.81   L 440.04 290.72   A 1.96 1.90 19.7 0 0 438.79 291.29   L 437.73 292.34   A 1.32 1.31 20.1 0 1 436.91 292.72   Q 429.18 293.27 418.87 293.34   Q 395.07 293.51 380.52 293.20   Q 377.20 293.13 374.88 295.40   Q 369.91 300.28 364.53 306.34   A 3.77 3.75 20.6 0 1 361.71 307.61   L 314.97 307.69"/>
<path stroke="#a1d0f6" vector-effect="non-scaling-stroke" d="   M 310.58 320.67   Q 309.44 319.07 307.48 319.80   A 0.64 0.64 0.0 0 0 307.14 320.72   Q 308.02 322.23 309.42 323.36   A 0.55 0.55 0.0 0 0 310.20 323.28   L 310.42 323.01"/>
<path stroke="#a1d0f6" vector-effect="non-scaling-stroke" d="   M 309.4087 233.7613   A 1.48 1.48 0.0 0 0 307.9312 232.2787   L 297.9913 232.2613   A 1.48 1.48 0.0 0 0 296.5087 233.7388   L 296.4913 243.6787   A 1.48 1.48 0.0 0 0 297.9688 245.1613   L 307.9087 245.1787   A 1.48 1.48 0.0 0 0 309.3913 243.7012   L 309.4087 233.7613"/>
<path stroke="#a1d0f6" vector-effect="non-scaling-stroke" d="   M 329.0974 233.7704   A 1.13 1.13 0.0 0 0 327.9714 232.6365   L 318.5514 232.6036   A 1.13 1.13 0.0 0 0 317.4175 233.7296   L 317.3826 243.7296   A 1.13 1.13 0.0 0 0 318.5086 244.8635   L 327.9286 244.8964   A 1.13 1.13 0.0 0 0 329.0625 243.7704   L 329.0974 233.7704"/>
<path stroke="#a1d0f6" vector-effect="non-scaling-stroke" d="   M 349.7264 234.0619   A 1.55 1.55 0.0 0 0 348.1819 232.5065   L 338.7419 232.4736   A 1.55 1.55 0.0 0 0 337.1865 234.0181   L 337.1536 243.4581   A 1.55 1.55 0.0 0 0 338.6981 245.0135   L 348.1381 245.0464   A 1.55 1.55 0.0 0 0 349.6935 243.5019   L 349.7264 234.0619"/>
<path stroke="#a1d0f6" vector-effect="non-scaling-stroke" d="   M 288.7238 254.0467   A 1.42 1.42 0.0 0 0 287.3163 252.6143   L 277.2167 252.5262   A 1.42 1.42 0.0 0 0 275.7843 253.9337   L 275.6962 264.0333   A 1.42 1.42 0.0 0 0 277.1037 265.4657   L 287.2033 265.5538   A 1.42 1.42 0.0 0 0 288.6357 264.1463   L 288.7238 254.0467"/>
<path stroke="#a1d0f6" vector-effect="non-scaling-stroke" d="   M 309.3254 253.8574   A 1.09 1.09 0.0 0 0 308.2468 252.7561   L 297.6074 252.6446   A 1.09 1.09 0.0 0 0 296.5061 253.7232   L 296.3946 264.3626   A 1.09 1.09 0.0 0 0 297.4732 265.4639   L 308.1126 265.5754   A 1.09 1.09 0.0 0 0 309.2139 264.4968   L 309.3254 253.8574"/>
<path stroke="#a1d0f6" vector-effect="non-scaling-stroke" d="   M 309.0864 274.1632   A 1.26 1.26 0.0 0 0 307.8330 272.8966   L 297.7132 272.8436   A 1.26 1.26 0.0 0 0 296.4466 274.0970   L 296.3936 284.2168   A 1.26 1.26 0.0 0 0 297.6470 285.4834   L 307.7668 285.5364   A 1.26 1.26 0.0 0 0 309.0334 284.2830   L 309.0864 274.1632"/>
<path stroke="#a1d0f6" vector-effect="non-scaling-stroke" d="   M 234.01 312.99   L 225.02 312.99   A 1.75 1.74 -80.7 0 0 223.37 314.18   Q 217.58 331.46 216.51 334.28   Q 212.71 344.28 209.86 354.27   Q 207.65 362.00 202.57 376.14   C 201.79 378.29 200.70 382.36 200.49 384.56   A 0.82 0.82 0.0 0 0 201.31 385.45   L 210.96 385.45   A 1.37 1.37 0.0 0 0 212.26 384.51   C 213.72 380.17 215.44 373.62 217.24 368.74   Q 227.34 341.38 234.63 313.79   A 0.64 0.64 0.0 0 0 234.01 312.99"/>
<path stroke="#a1d0f6" vector-effect="non-scaling-stroke" d="   M 196.08 324.31   A 0.67 0.67 0.0 0 0 195.07 323.73   L 162.88 343.02   A 1.94 1.92 74.7 0 0 161.94 344.68   L 161.94 353.76   A 2.20 2.18 15.7 0 0 163.00 355.63   L 195.41 375.12   A 0.60 0.60 0.0 0 0 196.32 374.61   Q 196.42 369.62 196.34 365.50   Q 196.28 362.85 194.11 361.64   Q 185.21 356.66 174.55 350.33   A 0.62 0.61 -46.9 0 1 174.52 349.29   Q 186.06 341.41 195.17 336.74   A 1.69 1.68 76.4 0 0 196.08 335.24   L 196.08 324.31"/>
<path stroke="#a1d0f6" vector-effect="non-scaling-stroke" d="   M 239.87 375.01   Q 240.86 374.62 243.23 373.23   Q 245.43 371.95 271.44 355.70   Q 273.06 354.69 273.03 352.75   Q 272.96 347.99 272.77 344.11   A 2.47 2.47 0.0 0 0 271.54 342.10   L 240.44 324.14   A 0.65 0.64 15.3 0 0 239.47 324.69   Q 239.39 329.72 239.16 333.78   Q 239.05 335.57 241.23 336.79   Q 255.02 344.53 260.71 347.99   A 1.16 1.15 45.6 0 1 260.69 349.97   Q 256.07 352.65 240.47 362.23   Q 238.90 363.19 238.96 365.73   Q 239.14 373.88 239.12 374.47   A 0.56 0.55 80.6 0 0 239.87 375.01"/>
<path stroke="#a1d0f6" vector-effect="non-scaling-stroke" d="   M 160.7520 404.1790   A 1.73 1.73 0.0 0 0 159.0190 402.4520   L 149.8590 402.4680   A 1.73 1.73 0.0 0 0 148.1320 404.2010   L 148.1480 413.3610   A 1.73 1.73 0.0 0 0 149.8810 415.0880   L 159.0410 415.0720   A 1.73 1.73 0.0 0 0 160.7680 413.3390   L 160.7520 404.1790"/>
<path stroke="#a1d0f6" vector-effect="non-scaling-stroke" d="   M 181.24 403.60   A 1.24 1.24 0.0 0 0 180.00 402.36   L 169.66 402.36   A 1.24 1.24 0.0 0 0 168.42 403.60   L 168.42 413.94   A 1.24 1.24 0.0 0 0 169.66 415.18   L 180.00 415.18   A 1.24 1.24 0.0 0 0 181.24 413.94   L 181.24 403.60"/>
<path stroke="#a1d0f6" vector-effect="non-scaling-stroke" d="   M 160.7216 424.3590   A 1.66 1.66 0.0 0 0 159.0587 422.7019   L 149.7987 422.7181   A 1.66 1.66 0.0 0 0 148.1416 424.3810   L 148.1584 433.9810   A 1.66 1.66 0.0 0 0 149.8213 435.6381   L 159.0813 435.6219   A 1.66 1.66 0.0 0 0 160.7384 433.9590   L 160.7216 424.3590"/>
<path stroke="#a1d0f6" vector-effect="non-scaling-stroke" d="   M 181.1617 423.7762   A 1.08 1.08 0.0 0 0 180.0761 422.7019   L 169.3162 422.7583   A 1.08 1.08 0.0 0 0 168.2419 423.8439   L 168.2983 434.6038   A 1.08 1.08 0.0 0 0 169.3839 435.6781   L 180.1438 435.6217   A 1.08 1.08 0.0 0 0 181.2181 434.5361   L 181.1617 423.7762"/>
<path stroke="#a1d0f6" vector-effect="non-scaling-stroke" d="   M 213.5406 423.8098   A 0.99 0.99 0.0 0 0 212.5488 422.8215   L 191.3689 422.8585   A 0.99 0.99 0.0 0 0 190.3806 423.8502   L 190.3994 434.6302   A 0.99 0.99 0.0 0 0 191.3912 435.6185   L 212.5711 435.5815   A 0.99 0.99 0.0 0 0 213.5594 434.5898   L 213.5406 423.8098"/>
<path stroke="#a1d0f6" vector-effect="non-scaling-stroke" d="   M 258.8715 423.8973   A 1.11 1.11 0.0 0 0 257.7577 422.7912   L 224.0579 422.9089   A 1.11 1.11 0.0 0 0 222.9517 424.0227   L 222.9885 434.5427   A 1.11 1.11 0.0 0 0 224.1023 435.6488   L 257.8021 435.5311   A 1.11 1.11 0.0 0 0 258.9083 434.4173   L 258.8715 423.8973"/>
<path stroke="#a1d0f6" vector-effect="non-scaling-stroke" d="   M 127.8670 458.2953   A 1.72 1.72 0.0 0 0 126.1351 456.5873   L 116.7353 456.6530   A 1.72 1.72 0.0 0 0 115.0273 458.3849   L 115.0930 467.7847   A 1.72 1.72 0.0 0 0 116.8249 469.4927   L 126.2247 469.4270   A 1.72 1.72 0.0 0 0 127.9327 467.6951   L 127.8670 458.2953"/>
<path stroke="#a1d0f6" vector-effect="non-scaling-stroke" d="   M 150.0087 458.0410   A 1.32 1.32 0.0 0 0 148.6910 456.7187   L 138.7110 456.7013   A 1.32 1.32 0.0 0 0 137.3887 458.0190   L 137.3713 467.9990   A 1.32 1.32 0.0 0 0 138.6890 469.3213   L 148.6690 469.3387   A 1.32 1.32 0.0 0 0 149.9913 468.0210   L 150.0087 458.0410"/>
<path stroke="#a1d0f6" vector-effect="non-scaling-stroke" d="   M 172.7672 458.1820   A 1.33 1.33 0.0 0 0 171.4419 456.8473   L 161.5420 456.8128   A 1.33 1.33 0.0 0 0 160.2073 458.1381   L 160.1728 468.0380   A 1.33 1.33 0.0 0 0 161.4981 469.3727   L 171.3980 469.4072   A 1.33 1.33 0.0 0 0 172.7327 468.0819   L 172.7672 458.1820"/>
<path stroke="#a1d0f6" vector-effect="non-scaling-stroke" d="   M 295.8073 476.0702   A 0.79 0.79 0.0 0 0 295.0201 475.2774   L 279.3402 475.2227   A 0.79 0.79 0.0 0 0 278.5474 476.0099   L 278.4927 491.6898   A 0.79 0.79 0.0 0 0 279.2799 492.4826   L 294.9598 492.5373   A 0.79 0.79 0.0 0 0 295.7526 491.7501   L 295.8073 476.0702"/>
<path stroke="#a1d0f6" vector-effect="non-scaling-stroke" d="   M 186.43 542.20   Q 192.82 542.19 199.46 542.28   A 0.96 0.95 80.0 0 1 200.34 542.90   L 205.23 555.85   A 2.06 2.04 -10.3 0 0 207.15 557.17   L 222.23 557.17   A 0.72 0.72 0.0 0 0 222.93 556.28   C 221.40 550.09 217.95 543.28 216.00 538.25   Q 208.01 517.63 195.43 486.71   A 2.19 2.18 79.6 0 0 193.47 485.35   Q 190.49 485.27 186.36 485.28   Q 182.24 485.28 179.26 485.37   A 2.19 2.18 -79.7 0 0 177.30 486.73   Q 164.79 517.68 156.85 538.32   C 154.91 543.35 151.47 550.17 149.96 556.36   A 0.72 0.72 0.0 0 0 150.66 557.25   L 165.74 557.22   A 2.06 2.04 10.2 0 0 167.66 555.89   L 172.52 542.93   A 0.96 0.95 -80.1 0 1 173.39 542.31   Q 180.04 542.21 186.43 542.20"/>
<path stroke="#a1d0f6" vector-effect="non-scaling-stroke" d="   M 246.7711 486.2245   A 0.89 0.89 0.0 0 0 245.8827 485.3329   L 231.1227 485.3072   A 0.89 0.89 0.0 0 0 230.2311 486.1956   L 230.1089 556.2355   A 0.89 0.89 0.0 0 0 230.9973 557.1271   L 245.7573 557.1528   A 0.89 0.89 0.0 0 0 246.6489 556.2644   L 246.7711 486.2245"/>
<path stroke="#a1d0f6" vector-effect="non-scaling-stroke" d="   M 315.0114 578.9297   A 1.34 1.34 0.0 0 0 313.6690 577.5921   L 304.5891 577.6079   A 1.34 1.34 0.0 0 0 303.2514 578.9503   L 303.2686 588.8103   A 1.34 1.34 0.0 0 0 304.6110 590.1479   L 313.6909 590.1321   A 1.34 1.34 0.0 0 0 315.0286 588.7897   L 315.0114 578.9297"/>
<path stroke="#a1d0f6" vector-effect="non-scaling-stroke" d="   M 335.1426 578.5276   A 0.95 0.95 0.0 0 0 334.1860 577.5843   L 323.9063 577.6560   A 0.95 0.95 0.0 0 0 322.9629 578.6126   L 323.0374 589.2724   A 0.95 0.95 0.0 0 0 323.9940 590.2157   L 334.2737 590.1440   A 0.95 0.95 0.0 0 0 335.2171 589.1874   L 335.1426 578.5276"/>
<path stroke="#a1d0f6" vector-effect="non-scaling-stroke" d="   M 294.8025 599.2969   A 1.26 1.26 0.0 0 0 293.5359 598.0435   L 283.3760 598.0967   A 1.26 1.26 0.0 0 0 282.1227 599.3633   L 282.1775 609.8431   A 1.26 1.26 0.0 0 0 283.4441 611.0965   L 293.6040 611.0433   A 1.26 1.26 0.0 0 0 294.8573 609.7767   L 294.8025 599.2969"/>
<path stroke="#a1d0f6" vector-effect="non-scaling-stroke" d="   M 315.0078 599.3408   A 1.18 1.18 0.0 0 0 313.8319 598.1567   L 304.2720 598.1234   A 1.18 1.18 0.0 0 0 303.0878 599.2992   L 303.0522 609.4992   A 1.18 1.18 0.0 0 0 304.2281 610.6833   L 313.7880 610.7166   A 1.18 1.18 0.0 0 0 314.9722 609.5408   L 315.0078 599.3408"/>
<path stroke="#a1d0f6" vector-effect="non-scaling-stroke" d="   M 335.3779 599.3017   A 1.06 1.06 0.0 0 0 334.3216 598.2380   L 324.0417 598.2021   A 1.06 1.06 0.0 0 0 322.9780 599.2584   L 322.9421 609.5383   A 1.06 1.06 0.0 0 0 323.9984 610.6020   L 334.2783 610.6379   A 1.06 1.06 0.0 0 0 335.3420 609.5816   L 335.3779 599.3017"/>
<path stroke="#a1d0f6" vector-effect="non-scaling-stroke" d="   M 355.8674 599.3928   A 1.21 1.21 0.0 0 0 354.6637 598.1765   L 344.5838 598.1237   A 1.21 1.21 0.0 0 0 343.3675 599.3273   L 343.3126 609.8072   A 1.21 1.21 0.0 0 0 344.5163 611.0235   L 354.5962 611.0763   A 1.21 1.21 0.0 0 0 355.8125 609.8727   L 355.8674 599.3928"/>
<path stroke="#a1d0f6" vector-effect="non-scaling-stroke" d="   M 315.1462 619.4620   A 1.28 1.28 0.0 0 0 313.8751 618.1731   L 304.4354 618.1072   A 1.28 1.28 0.0 0 0 303.1464 619.3782   L 303.0738 629.7780   A 1.28 1.28 0.0 0 0 304.3449 631.0669   L 313.7846 631.1328   A 1.28 1.28 0.0 0 0 315.0736 629.8618   L 315.1462 619.4620"/>
<path stroke="#a1d0f6" vector-effect="non-scaling-stroke" d="   M 335.3383 619.3416   A 1.18 1.18 0.0 0 0 334.1624 618.1575   L 324.1625 618.1226   A 1.18 1.18 0.0 0 0 322.9784 619.2985   L 322.9417 629.7984   A 1.18 1.18 0.0 0 0 324.1176 630.9825   L 334.1175 631.0174   A 1.18 1.18 0.0 0 0 335.3016 629.8415   L 335.3383 619.3416"/>
<path stroke="#a1d0f6" vector-effect="non-scaling-stroke" d="   M 274.7965 640.5522   A 1.59 1.59 0.0 0 0 273.2121 638.9566   L 263.7122 638.9235   A 1.59 1.59 0.0 0 0 262.1166 640.5079   L 262.0835 650.0078   A 1.59 1.59 0.0 0 0 263.6679 651.6034   L 273.1678 651.6365   A 1.59 1.59 0.0 0 0 274.7634 650.0521   L 274.7965 640.5522"/>
<path stroke="#a1d0f6" vector-effect="non-scaling-stroke" d="   M 295.0412 640.2187   A 1.42 1.42 0.0 0 0 293.6187 638.8012   L 283.4987 638.8188   A 1.42 1.42 0.0 0 0 282.0812 640.2413   L 282.0988 650.3613   A 1.42 1.42 0.0 0 0 283.5213 651.7788   L 293.6413 651.7612   A 1.42 1.42 0.0 0 0 295.0588 650.3387   L 295.0412 640.2187"/>
<path stroke="#225077" vector-effect="non-scaling-stroke" d="   M 434.3209 262.1987   A 0.91 0.91 0.0 0 0 433.4077 261.2919   L 423.0278 261.3282   A 0.91 0.91 0.0 0 0 422.1209 262.2413   L 422.1591 273.1813   A 0.91 0.91 0.0 0 0 423.0723 274.0881   L 433.4522 274.0518   A 0.91 0.91 0.0 0 0 434.3591 273.1387   L 434.3209 262.1987"/>
<path stroke="#225077" vector-effect="non-scaling-stroke" d="   M 455.0750 262.4279   A 1.08 1.08 0.0 0 0 453.9856 261.3574   L 444.1660 261.4431   A 1.08 1.08 0.0 0 0 443.0955 262.5325   L 443.1850 272.7921   A 1.08 1.08 0.0 0 0 444.2744 273.8626   L 454.0940 273.7769   A 1.08 1.08 0.0 0 0 455.1645 272.6875   L 455.0750 262.4279"/>
<path stroke="#225077" vector-effect="non-scaling-stroke" d="   M 414.1596 262.3606   A 0.90 0.90 0.0 0 0 413.2612 261.4591   L 402.8812 261.4410   A 0.90 0.90 0.0 0 0 401.9796 262.3394   L 401.9604 273.3594   A 0.90 0.90 0.0 0 0 402.8588 274.2609   L 413.2388 274.2790   A 0.90 0.90 0.0 0 0 414.1404 273.3806   L 414.1596 262.3606"/>
<path stroke="#808080" vector-effect="non-scaling-stroke" d="   M 554.63 418.98   Q 556.38 418.80 581.97 415.70   Q 591.19 414.58 609.30 412.71   Q 638.81 409.67 642.77 409.05   Q 647.53 408.30 651.22 405.97   C 659.65 400.63 664.99 396.96 670.80 394.71   Q 674.70 393.20 675.85 392.65   C 682.81 389.28 690.64 388.61 698.46 389.34   Q 714.42 390.85 730.49 395.30   C 734.86 396.51 739.52 398.68 741.46 403.01   C 742.08 404.39 742.07 406.51 742.36 407.83   A 3.68 3.58 19.5 0 0 743.13 409.39   Q 746.68 413.60 751.98 416.42   A 1.75 1.70 -36.7 0 0 753.17 416.58   Q 755.96 415.95 756.69 413.89   Q 757.47 411.67 759.21 405.97   Q 761.25 399.26 759.08 392.67   C 756.66 385.31 754.42 377.13 751.03 367.55   C 746.20 353.96 743.27 345.37 739.21 331.62   Q 733.69 312.88 723.47 294.85   Q 721.78 291.88 719.79 290.46   C 717.05 288.52 712.00 286.45 708.24 285.13   Q 680.74 275.49 650.74 274.91   Q 634.71 274.61 619.69 279.20   C 596.51 286.29 582.88 307.75 589.58 331.80   Q 594.41 349.12 595.84 367.28   A 2.96 2.96 0.0 0 1 594.27 370.14   C 575.03 380.31 559.30 396.44 553.76 417.98   A 0.81 0.80 4.2 0 0 554.63 418.98"/>
<path stroke="#225077" vector-effect="non-scaling-stroke" d="   M 532.75 342.25   A 0.53 0.53 0.0 0 0 533.19 341.53   Q 524.13 318.29 518.75 305.05   Q 513.80 292.89 510.21 281.95   A 1.97 1.96 -9.0 0 0 508.34 280.59   L 495.93 280.59   A 0.97 0.93 20.3 0 0 495.22 280.90   Q 493.98 282.25 493.22 284.28   Q 480.94 316.89 471.36 341.03   A 0.96 0.96 0.0 0 0 472.22 342.35   Q 475.82 342.48 482.10 342.32   C 483.72 342.28 485.05 342.65 485.79 340.76   Q 486.83 338.08 489.63 329.26   A 0.68 0.68 0.0 0 1 490.28 328.78   L 512.98 328.78   A 1.36 1.34 -9.3 0 1 514.26 329.69   Q 515.83 334.19 517.63 340.08   Q 518.41 342.64 520.69 342.54   C 525.07 342.34 529.20 342.58 532.75 342.25"/>
<path stroke="#225077" vector-effect="non-scaling-stroke" d="   M 552.90 281.88   A 1.23 1.23 0.0 0 0 551.67 280.65   L 540.19 280.65   A 1.23 1.23 0.0 0 0 538.96 281.88   L 538.96 341.06   A 1.23 1.23 0.0 0 0 540.19 342.29   L 551.67 342.29   A 1.23 1.23 0.0 0 0 552.90 341.06   L 552.90 281.88"/>
<path stroke="#225077" vector-effect="non-scaling-stroke" d="   M 483.7374 363.4018   A 1.25 1.25 0.0 0 0 482.4918 362.1474   L 472.5318 362.1127   A 1.25 1.25 0.0 0 0 471.2775 363.3583   L 471.2426 373.3382   A 1.25 1.25 0.0 0 0 472.4882 374.5926   L 482.4482 374.6273   A 1.25 1.25 0.0 0 0 483.7025 373.3817   L 483.7374 363.4018"/>
<path stroke="#225077" vector-effect="non-scaling-stroke" d="   M 504.5814 363.2994   A 1.12 1.12 0.0 0 0 503.4594 362.1814   L 493.5994 362.1986   A 1.12 1.12 0.0 0 0 492.4814 363.3206   L 492.4986 373.1806   A 1.12 1.12 0.0 0 0 493.6206 374.2986   L 503.4806 374.2814   A 1.12 1.12 0.0 0 0 504.5986 373.1594   L 504.5814 363.2994"/>
<path stroke="#225077" vector-effect="non-scaling-stroke" d="   M 525.4714 363.4593   A 1.25 1.25 0.0 0 0 524.2192 362.2115   L 514.4193 362.2286   A 1.25 1.25 0.0 0 0 513.1714 363.4807   L 513.1886 373.3007   A 1.25 1.25 0.0 0 0 514.4408 374.5485   L 524.2407 374.5314   A 1.25 1.25 0.0 0 0 525.4886 373.2793   L 525.4714 363.4593"/>
<path stroke="#225077" vector-effect="non-scaling-stroke" d="   M 346.3716 410.5600   A 1.31 1.31 0.0 0 0 345.0593 409.2523   L 336.1794 409.2678   A 1.31 1.31 0.0 0 0 334.8716 410.5800   L 334.8884 420.1600   A 1.31 1.31 0.0 0 0 336.2007 421.4677   L 345.0806 421.4522   A 1.31 1.31 0.0 0 0 346.3884 420.1400   L 346.3716 410.5600"/>
<path stroke="#225077" vector-effect="non-scaling-stroke" d="   M 367.87 410.69   A 1.25 1.25 0.0 0 0 366.62 409.44   L 356.98 409.44   A 1.25 1.25 0.0 0 0 355.73 410.69   L 355.73 420.33   A 1.25 1.25 0.0 0 0 356.98 421.58   L 366.62 421.58   A 1.25 1.25 0.0 0 0 367.87 420.33   L 367.87 410.69"/>
<path stroke="#808080" vector-effect="non-scaling-stroke" d="   M 692.88 423.88   Q 691.56 429.40 691.33 439.75   Q 690.80 463.80 691.64 474.57   C 692.40 484.29 694.51 494.08 703.56 499.26   C 706.51 500.95 709.01 501.13 712.52 501.54   C 720.00 502.40 726.56 498.33 729.86 491.83   C 736.28 479.21 738.69 464.85 740.45 449.49   Q 741.04 444.37 741.00 436.74   C 740.95 423.59 732.69 418.24 721.08 415.25   Q 714.27 413.49 706.96 414.46   C 702.60 415.04 696.72 417.51 694.24 421.44   Q 692.99 423.43 692.88 423.88"/>
<path stroke="#808080" vector-effect="non-scaling-stroke" d="   M 789.08 482.71   Q 789.53 474.18 791.19 463.99   Q 791.63 461.29 792.61 448.21   Q 792.86 444.86 792.74 440.80   C 792.55 434.90 792.30 428.51 786.53 426.61   Q 780.77 424.73 774.86 427.91   A 4.46 4.46 0.0 0 0 772.67 430.70   Q 770.19 440.29 770.32 450.97   A 6.94 6.90 35.4 0 0 770.70 453.17   Q 771.98 456.89 772.70 458.05   Q 782.82 474.53 787.97 482.99   A 0.60 0.60 0.0 0 0 789.08 482.71"/>
<path stroke="#225077" vector-effect="non-scaling-stroke" d="   M 346.94 435.57   A 1.16 1.16 0.0 0 0 345.78 434.41   L 335.54 434.41   A 1.16 1.16 0.0 0 0 334.38 435.57   L 334.38 445.81   A 1.16 1.16 0.0 0 0 335.54 446.97   L 345.78 446.97   A 1.16 1.16 0.0 0 0 346.94 445.81   L 346.94 435.57"/>
<path stroke="#808080" vector-effect="non-scaling-stroke" d="   M 754.08 455.97   Q 751.52 470.33 748.45 481.80   Q 744.02 498.41 740.17 503.68   C 732.32 514.42 719.81 516.97 706.90 515.39   Q 693.41 513.75 684.78 504.07   C 678.61 497.16 676.31 487.95 675.42 478.76   C 674.27 466.81 674.08 455.97 673.04 444.51   Q 672.77 441.52 668.97 436.14   A 2.52 2.47 -8.1 0 0 667.68 435.19   Q 664.90 434.29 661.74 434.61   Q 618.35 439.05 552.27 446.12   A 1.43 1.43 0.0 0 0 551.01 447.29   Q 550.04 452.77 549.75 458.25   Q 548.95 473.69 549.43 488.05   A 0.64 0.63 84.8 0 1 548.90 488.69   Q 538.74 490.24 522.67 492.29   C 519.99 492.63 517.01 493.57 514.52 493.96   A 0.74 0.73 77.3 0 1 513.69 493.43   C 510.12 480.55 505.27 462.55 491.93 456.11   Q 485.10 452.81 482.07 449.93   Q 469.02 437.50 451.91 436.32   C 430.90 434.86 414.56 450.83 410.01 470.27   Q 406.96 483.30 409.49 496.26   Q 417.14 535.47 449.31 559.51   Q 455.59 564.20 463.02 568.83   C 470.21 573.30 476.98 575.76 485.44 573.68   Q 495.67 571.16 501.14 562.21   A 0.59 0.58 52.4 0 1 502.20 562.35   C 504.81 571.01 504.47 582.37 496.65 588.34   C 487.76 595.13 475.24 595.46 465.37 591.76   C 459.93 589.73 453.74 586.70 448.90 583.09   Q 444.49 579.81 441.64 577.92   A 0.74 0.74 0.0 0 0 440.49 578.51   C 440.17 588.99 437.78 600.24 432.17 609.91   Q 428.44 616.34 419.13 624.63   Q 415.04 628.28 411.14 630.62   Q 409.29 631.72 409.26 634.26   C 409.01 653.36 405.50 671.37 401.13 690.70   Q 398.53 702.17 394.91 710.94   A 0.41 0.40 24.6 0 0 395.11 711.46   Q 400.69 714.16 420.77 723.56   Q 434.65 730.06 446.07 736.52   Q 471.48 750.89 490.49 763.15   Q 525.99 786.05 577.12 821.92   A 0.41 0.41 0.0 0 0 577.73 821.74   C 584.42 805.81 593.75 790.65 603.11 776.56   C 605.50 772.97 608.00 768.03 607.99 764.75   Q 607.98 760.39 606.46 758.78   Q 604.60 756.79 589.92 744.15   Q 584.74 739.68 581.96 736.83   C 575.11 729.82 570.33 725.64 564.67 719.09   Q 563.87 718.16 556.03 709.75   Q 546.68 699.69 535.77 686.42   Q 522.81 670.66 518.02 661.24   Q 504.55 634.74 508.76 603.70   A 0.42 0.42 0.0 0 1 509.57 603.61   Q 512.76 611.90 513.61 614.27   C 520.10 632.34 534.27 647.94 550.40 657.87   Q 562.63 665.39 579.22 671.30   C 592.51 676.04 606.44 681.65 619.68 685.81   Q 653.05 696.30 675.58 701.92   Q 685.78 704.47 695.31 705.98   C 712.88 708.76 733.71 708.61 743.27 690.54   C 748.97 679.77 744.93 667.46 741.53 655.94   A 4.09 4.02 -72.9 0 0 740.85 654.63   C 738.01 650.98 734.51 648.86 729.65 645.40   A 0.80 0.79 29.1 0 1 729.37 644.45   Q 730.22 642.37 731.61 637.47   C 732.21 635.37 733.61 633.28 735.77 633.32   Q 742.30 633.45 748.74 632.73   Q 751.60 632.41 753.55 630.33   Q 759.15 624.36 754.73 618.44   C 748.52 610.12 725.07 615.78 715.55 615.76   Q 708.81 615.75 695.62 615.32   A 0.41 0.41 0.0 0 1 695.27 614.71   L 701.97 603.11   A 0.60 0.60 0.0 0 1 702.68 602.85   Q 712.15 606.22 721.86 604.01   C 726.95 602.85 733.52 599.68 738.17 597.86   C 745.64 594.93 750.40 592.63 757.18 595.97   Q 758.31 596.53 759.56 595.96   Q 762.41 594.66 761.07 591.68   C 759.02 587.13 756.55 582.17 755.84 577.01   Q 754.66 568.46 756.87 560.17   A 0.79 0.78 -80.3 0 0 756.18 559.19   C 754.01 558.98 752.14 559.32 749.71 559.96   C 743.64 561.53 736.52 562.66 731.30 559.34   C 725.40 555.60 723.24 551.47 723.21 544.61   Q 723.16 535.44 729.81 529.26   A 0.48 0.48 0.0 0 1 730.59 529.76   Q 729.16 533.93 730.11 539.43   C 731.13 545.33 737.88 547.55 743.04 546.97   A 3.77 3.75 -59.3 0 0 743.97 546.73   Q 744.62 546.46 758.85 541.41   C 767.77 538.24 776.53 540.23 783.84 541.57   C 790.83 542.86 795.94 535.21 794.18 528.87   C 792.49 522.78 790.37 519.03 786.85 512.33   C 782.34 503.75 778.58 497.99 772.19 487.53   Q 770.14 484.19 768.10 480.25   C 765.38 475.02 761.86 470.07 759.00 464.63   Q 756.64 460.13 754.73 455.89   A 0.34 0.34 0.0 0 0 754.08 455.97"/>
<path stroke="#225077" vector-effect="non-scaling-stroke" d="   M 502.29 296.86   A 0.32 0.32 0.0 0 0 501.69 296.87   L 494.68 317.15   A 0.32 0.32 0.0 0 0 494.98 317.57   L 509.65 317.57   A 0.32 0.32 0.0 0 0 509.95 317.14   L 502.29 296.86"/>
<path stroke="#808080" vector-effect="non-scaling-stroke" d="   M 430.21 510.28   C 430.07 501.19 430.49 490.42 433.28 481.01   Q 435.30 474.19 441.41 470.66   C 452.40 464.30 462.44 474.56 467.31 483.50   Q 468.49 485.67 466.03 486.79   C 454.14 492.24 445.83 501.39 447.26 515.31   C 448.34 525.89 456.36 529.07 465.47 531.42   C 466.38 531.65 467.72 532.40 468.56 532.83   A 9.24 8.94 -9.5 0 1 470.43 534.12   C 475.39 538.55 479.67 542.19 486.74 541.05   C 491.32 540.31 493.43 535.48 491.60 531.24   C 489.53 526.44 485.64 523.10 482.94 519.63   C 475.77 510.41 480.10 500.48 480.70 490.41   Q 481.04 484.80 480.48 482.74   Q 478.10 473.91 477.40 472.37   C 471.87 460.20 462.70 453.24 449.01 452.64   C 434.71 452.01 424.60 464.98 423.17 477.98   C 422.06 488.02 424.80 500.93 429.48 510.45   A 0.39 0.38 31.6 0 0 430.21 510.28"/>
<path stroke="#a1d0f6" vector-effect="non-scaling-stroke" d="   M 176.86 528.29   A 0.70 0.70 0.0 0 0 177.52 529.23   L 195.17 529.26   A 0.70 0.70 0.0 0 0 195.83 528.32   L 187.05 503.63   A 0.70 0.70 0.0 0 0 185.73 503.63   L 176.86 528.29"/>
</g>
<path xmlns="http://www.w3.org/2000/svg" fill="#ffffff" d="   M 192.08 249.50   C 193.24 248.56 195.07 245.74 196.53 244.39   Q 203.04 238.36 209.47 230.69   Q 214.21 225.02 217.58 221.84   C 220.96 218.66 224.99 214.26 228.99 210.58   Q 240.78 199.72 256.33 186.83   C 260.88 183.06 264.22 181.14 268.78 177.82   C 273.61 174.30 277.81 170.52 282.69 167.59   C 289.50 163.50 295.82 159.17 300.41 155.90   C 306.09 151.84 314.85 148.00 319.70 145.69   C 326.00 142.69 331.40 139.01 337.69 136.70   C 342.84 134.81 349.49 131.52 354.43 129.01   C 359.70 126.33 365.83 124.67 371.54 122.29   C 375.35 120.70 379.82 120.34 383.92 118.82   Q 398.90 113.23 413.36 110.59   A 13.35 12.89 -59.4 0 0 415.65 109.96   Q 422.67 107.30 429.38 106.34   C 440.78 104.71 454.05 102.00 463.01 101.26   Q 472.52 100.47 489.75 99.05   C 500.41 98.18 513.59 98.88 521.89 98.93   C 533.66 99.00 544.04 99.99 555.19 100.79   Q 562.78 101.33 569.79 102.48   Q 582.48 104.55 595.27 106.40   C 597.33 106.69 599.13 107.49 600.88 108.24   A 11.85 11.59 62.3 0 0 602.98 108.92   Q 620.34 112.87 637.26 118.31   C 641.85 119.79 647.21 120.36 651.37 122.38   C 657.39 125.32 663.67 127.09 669.64 129.88   C 675.91 132.81 683.50 135.73 689.87 139.16   Q 692.30 140.47 695.14 141.41   C 699.63 142.90 702.05 144.70 708.11 148.15   Q 710.63 149.60 715.99 152.28   Q 723.29 155.94 729.73 160.72   C 735.37 164.89 741.57 167.95 748.00 172.51   Q 765.48 184.88 785.10 201.60   C 809.27 222.20 830.28 246.71 848.76 272.62   C 857.12 284.34 863.32 294.79 871.32 307.44   Q 872.61 309.48 873.46 311.36   Q 878.37 322.27 886.82 338.44   C 890.41 345.32 894.02 353.83 895.82 359.03   Q 904.44 383.99 909.24 400.29   Q 911.08 406.54 911.90 410.77   C 912.73 415.06 914.14 419.38 915.20 424.78   Q 920.10 449.99 923.55 480.32   Q 924.24 486.39 924.30 490.31   Q 924.33 492.59 924.58 500.29   Q 925.24 520.55 923.83 533.25   Q 923.12 539.66 923.04 541.42   C 922.68 549.27 922.04 552.32 921.16 561.70   Q 920.76 566.02 919.52 573.76   Q 918.06 582.93 916.80 590.27   Q 914.20 605.36 907.26 629.55   Q 905.94 634.12 904.06 638.95   C 901.37 645.87 899.38 653.03 896.53 659.62   Q 895.70 661.52 892.10 670.86   C 890.39 675.31 887.29 680.53 885.26 684.99   Q 877.84 701.35 867.23 720.32   Q 863.85 726.37 862.28 728.37   C 859.58 731.79 857.78 735.04 854.98 738.64   Q 851.68 742.87 848.98 746.90   C 844.20 754.00 839.10 760.18 834.04 766.84   Q 829.94 772.23 825.82 776.57   C 821.90 780.69 818.82 784.93 814.60 789.36   C 801.91 802.68 791.56 813.90 780.13 822.89   Q 768.57 831.97 765.40 834.52   C 755.78 842.28 745.28 849.15 734.85 856.48   Q 727.23 861.83 723.32 864.08   C 707.22 873.35 699.12 878.29 686.45 883.68   C 677.14 887.64 668.26 891.87 658.69 895.43   Q 644.48 900.72 631.05 905.21   Q 617.95 909.60 606.42 912.02   Q 599.86 913.40 589.81 915.90   C 577.50 918.96 564.10 919.80 552.44 921.57   Q 543.04 923.01 531.75 923.28   C 515.40 923.68 507.17 924.27 494.77 923.22   C 488.00 922.64 481.53 923.14 474.77 922.27   Q 446.68 918.63 442.04 917.64   Q 431.50 915.40 428.68 914.86   C 419.06 913.01 412.82 910.85 403.61 908.64   Q 400.40 907.87 391.94 905.12   C 383.14 902.25 368.44 897.67 357.30 892.57   Q 346.03 887.41 338.12 884.10   C 332.95 881.93 326.94 877.95 322.83 876.17   C 314.85 872.71 307.72 867.87 299.52 863.50   Q 294.74 860.96 288.18 856.30   Q 283.31 852.85 277.63 848.95   C 266.04 841.02 254.93 832.37 244.42 823.59   Q 236.63 817.09 223.46 804.57   Q 212.89 794.53 203.94 784.02   C 193.63 771.89 183.68 759.79 174.47 747.06   C 170.63 741.75 167.21 735.63 164.22 731.35   C 159.44 724.50 156.39 718.75 152.08 711.94   Q 150.40 709.28 147.73 703.86   C 142.36 692.94 139.06 686.83 135.49 678.17   Q 133.42 673.14 128.81 663.37   Q 126.30 658.03 125.36 655.51   C 124.05 651.96 122.45 648.74 121.42 644.80   Q 117.36 629.23 116.47 626.51   Q 112.97 615.85 109.66 603.24   Q 106.96 592.97 105.37 581.53   C 103.06 564.88 101.56 556.10 100.91 542.94   Q 100.24 529.38 99.92 526.25   C 99.02 517.73 99.92 509.86 99.78 500.18   C 99.68 493.48 100.60 487.63 100.90 480.73   Q 101.51 466.93 102.72 459.17   Q 103.32 455.27 104.57 445.79   Q 107.22 425.61 113.27 406.41   Q 115.64 398.91 117.26 392.38   Q 119.56 383.09 121.62 378.46   Q 123.58 374.04 125.25 368.18   C 126.92 362.31 130.63 354.33 132.63 348.34   Q 134.98 341.30 136.31 338.78   Q 140.38 331.06 141.68 328.18   C 144.41 322.09 147.65 317.30 151.14 310.32   Q 153.53 305.54 156.44 301.58   C 158.82 298.33 160.86 294.51 163.78 290.05   Q 171.08 278.93 182.56 262.03   C 184.68 258.92 187.11 256.74 189.12 253.63   Q 191.48 250.00 192.08 249.50   Z   M 314.97 307.69   Q 307.17 307.82 299.41 307.67   C 298.12 307.64 295.27 308.02 294.12 306.85   Q 271.24 283.51 249.29 261.70   Q 242.06 254.51 236.41 248.10   Q 233.84 245.18 230.04 245.22   Q 211.89 245.42 197.00 245.93   A 2.23 2.21 21.1 0 0 195.49 246.59   Q 191.56 250.50 189.50 255.28   A 1.51 1.51 0.0 0 0 190.90 257.38   Q 206.90 257.26 225.99 257.40   Q 228.30 257.41 230.13 259.12   C 238.07 266.51 244.17 273.08 251.67 280.57   Q 276.69 305.52 305.11 334.38   Q 305.51 334.79 305.83 335.96   Q 304.73 343.74 303.63 351.52   Q 301.52 366.42 301.29 381.43   L 282.14 381.79   A 2.38 2.38 0.0 0 0 281.10 382.05   Q 279.43 382.90 278.15 384.15   Q 268.48 393.65 260.67 401.15   Q 258.99 402.77 257.50 402.76   Q 220.18 402.58 191.30 402.61   A 0.84 0.84 0.0 0 0 190.46 403.45   L 190.46 413.64   A 1.20 1.19 -86.5 0 0 191.50 414.83   Q 193.22 415.05 195.25 415.00   Q 203.10 414.80 261.29 414.81   Q 262.97 414.81 265.21 412.77   Q 274.23 404.55 283.12 395.19   A 4.31 4.29 21.3 0 1 286.16 393.86   L 301.41 393.64   L 301.95 409.53   Q 297.39 413.87 293.13 418.32   C 280.88 431.11 268.19 443.60 256.74 455.23   Q 254.99 457.00 253.24 457.01   Q 214.42 457.10 184.26 456.90   A 0.60 0.60 0.0 0 0 183.66 457.50   L 183.66 467.82   A 1.23 1.22 -89.8 0 0 184.87 469.05   Q 214.50 469.21 251.50 469.07   C 255.38 469.05 259.38 469.39 261.60 467.09   Q 275.95 452.21 293.81 434.46   Q 295.67 432.61 298.57 429.44   Q 300.94 426.86 303.35 424.43   Q 303.38 427.59 303.69 429.26   Q 305.74 440.00 307.74 450.75   Q 310.71 466.70 318.63 486.80   Q 318.95 487.62 318.98 488.45   L 270.97 537.29   A 2.00 1.99 -40.6 0 0 270.77 539.85   Q 272.61 542.42 275.47 544.88   Q 278.04 547.09 280.27 544.76   Q 301.81 522.27 324.32 500.04   L 340.85 533.07   Q 330.34 533.35 319.50 533.45   Q 317.25 533.47 315.84 534.85   Q 303.87 546.67 280.81 570.07   Q 278.82 572.09 275.26 572.08   Q 239.66 572.03 207.95 572.00   A 0.89 0.89 0.0 0 0 207.06 572.89   L 207.06 582.68   A 1.33 1.33 0.0 0 0 208.39 584.01   L 242.41 584.01   A 0.48 0.47 22.4 0 1 242.75 584.82   L 195.52 632.05   A 1.98 1.98 0.0 0 1 194.12 632.63   L 158.70 632.63   A 0.86 0.86 0.0 0 0 157.84 633.49   L 157.84 643.72   A 1.06 1.06 0.0 0 0 158.90 644.78   L 197.36 644.78   A 5.07 5.04 22.3 0 0 200.95 643.29   L 259.57 584.68   A 2.15 2.15 0.0 0 1 261.04 584.05   Q 275.16 583.80 279.30 583.80   Q 282.94 583.81 285.75 581.01   Q 309.96 556.78 314.45 552.20   Q 316.72 549.89 319.79 547.12   C 321.48 545.59 323.12 545.12 325.26 545.17   Q 340.34 545.55 345.83 545.41   A 2.66 2.65 -36.2 0 1 346.82 545.56   L 347.40 545.76   Q 350.20 550.45 352.69 555.28   Q 360.66 570.77 366.84 583.63   C 370.18 590.57 373.79 599.40 375.50 605.25   C 379.34 618.40 381.42 626.83 384.77 633.97   A 5.51 5.40 -59.4 0 1 385.28 636.04   Q 385.63 643.93 384.34 652.21   Q 381.95 667.61 380.21 675.73   Q 374.63 701.89 365.29 724.62   A 1.26 1.26 0.0 0 0 366.01 726.28   Q 377.12 730.47 383.20 732.81   C 389.07 735.07 393.96 737.67 400.78 740.49   Q 406.21 742.74 413.84 746.53   C 452.74 765.89 489.31 790.10 524.76 814.49   Q 534.33 821.07 579.54 853.45   Q 582.48 855.55 585.86 858.62   A 0.64 0.64 0.0 0 0 586.86 858.44   C 593.38 846.02 598.60 831.83 604.71 820.38   Q 614.96 801.18 622.25 790.60   Q 625.55 785.80 627.18 782.10   Q 630.79 773.90 631.01 772.99   Q 635.60 754.13 635.65 753.92   C 638.93 740.82 646.21 730.20 660.97 729.64   Q 670.12 729.29 682.64 730.05   Q 696.65 730.91 710.76 730.75   C 725.34 730.59 740.72 725.66 751.72 715.75   C 762.06 706.43 767.49 690.36 766.67 676.52   Q 766.18 668.12 762.63 656.61   C 761.12 651.71 761.39 648.97 764.29 645.25   Q 768.45 639.90 771.14 634.23   C 774.71 626.69 772.26 620.74 769.08 613.97   A 1.92 1.91 -37.1 0 1 769.37 611.91   C 773.92 606.66 779.96 597.57 777.50 590.50   C 774.61 582.21 771.72 574.19 772.97 568.27   A 4.11 4.10 85.2 0 1 775.46 565.32   C 780.35 563.39 785.62 562.32 790.20 560.04   Q 798.44 555.92 799.33 555.29   Q 815.51 543.87 811.36 525.43   C 809.89 518.86 806.40 513.54 802.44 506.58   C 800.45 503.07 797.72 498.48 798.59 495.06   Q 801.85 482.39 803.28 468.50   C 804.92 452.55 806.27 442.36 806.29 430.01   Q 806.30 425.90 805.60 422.67   A 6.32 6.30 11.9 0 0 803.12 418.88   Q 791.03 410.17 775.73 411.45   A 0.55 0.54 -82.3 0 1 775.18 410.72   Q 777.63 404.06 777.62 397.69   A 12.15 11.96 40.5 0 0 777.46 395.86   Q 777.00 393.21 774.34 385.17   C 765.90 359.63 759.71 342.27 751.82 316.69   Q 748.73 306.69 740.09 290.24   C 739.01 288.20 738.67 287.12 740.09 285.32   Q 745.37 278.61 749.95 270.05   C 755.15 260.33 757.56 249.81 757.75 239.50   Q 757.93 229.57 757.25 224.52   Q 754.70 205.70 744.69 190.86   C 739.78 183.58 734.98 177.16 727.44 172.63   A 0.71 0.70 -54.6 0 0 726.53 172.79   C 724.04 175.85 722.60 177.91 720.02 179.96   C 711.30 186.89 700.39 190.95 689.70 192.90   Q 685.66 193.63 682.31 194.60   A 0.39 0.39 0.0 0 1 681.97 193.91   C 688.43 189.09 692.21 179.61 693.84 172.05   A 0.51 0.51 0.0 0 0 693.10 171.50   Q 691.01 172.59 688.68 173.38   Q 655.86 184.41 620.48 180.17   C 609.46 178.84 594.12 176.61 582.83 174.75   C 555.78 170.30 528.55 167.79 501.52 168.83   Q 483.20 169.53 459.77 174.54   Q 443.62 177.98 430.20 183.94   C 404.96 195.13 377.90 213.63 370.32 241.81   A 4.10 4.09 84.4 0 1 368.18 244.42   C 357.68 249.67 346.59 257.47 338.61 266.52   C 327.42 279.21 320.87 291.61 314.97 307.69   Z   M 309.4087 233.7613   A 1.48 1.48 0.0 0 0 307.9312 232.2787   L 297.9913 232.2613   A 1.48 1.48 0.0 0 0 296.5087 233.7388   L 296.4913 243.6787   A 1.48 1.48 0.0 0 0 297.9688 245.1613   L 307.9087 245.1787   A 1.48 1.48 0.0 0 0 309.3913 243.7012   L 309.4087 233.7613   Z   M 329.0974 233.7704   A 1.13 1.13 0.0 0 0 327.9714 232.6365   L 318.5514 232.6036   A 1.13 1.13 0.0 0 0 317.4175 233.7296   L 317.3826 243.7296   A 1.13 1.13 0.0 0 0 318.5086 244.8635   L 327.9286 244.8964   A 1.13 1.13 0.0 0 0 329.0625 243.7704   L 329.0974 233.7704   Z   M 349.7264 234.0619   A 1.55 1.55 0.0 0 0 348.1819 232.5065   L 338.7419 232.4736   A 1.55 1.55 0.0 0 0 337.1865 234.0181   L 337.1536 243.4581   A 1.55 1.55 0.0 0 0 338.6981 245.0135   L 348.1381 245.0464   A 1.55 1.55 0.0 0 0 349.6935 243.5019   L 349.7264 234.0619   Z   M 288.7238 254.0467   A 1.42 1.42 0.0 0 0 287.3163 252.6143   L 277.2167 252.5262   A 1.42 1.42 0.0 0 0 275.7843 253.9337   L 275.6962 264.0333   A 1.42 1.42 0.0 0 0 277.1037 265.4657   L 287.2033 265.5538   A 1.42 1.42 0.0 0 0 288.6357 264.1463   L 288.7238 254.0467   Z   M 309.3254 253.8574   A 1.09 1.09 0.0 0 0 308.2468 252.7561   L 297.6074 252.6446   A 1.09 1.09 0.0 0 0 296.5061 253.7232   L 296.3946 264.3626   A 1.09 1.09 0.0 0 0 297.4732 265.4639   L 308.1126 265.5754   A 1.09 1.09 0.0 0 0 309.2139 264.4968   L 309.3254 253.8574   Z   M 309.0864 274.1632   A 1.26 1.26 0.0 0 0 307.8330 272.8966   L 297.7132 272.8436   A 1.26 1.26 0.0 0 0 296.4466 274.0970   L 296.3936 284.2168   A 1.26 1.26 0.0 0 0 297.6470 285.4834   L 307.7668 285.5364   A 1.26 1.26 0.0 0 0 309.0334 284.2830   L 309.0864 274.1632   Z   M 234.01 312.99   L 225.02 312.99   A 1.75 1.74 -80.7 0 0 223.37 314.18   Q 217.58 331.46 216.51 334.28   Q 212.71 344.28 209.86 354.27   Q 207.65 362.00 202.57 376.14   C 201.79 378.29 200.70 382.36 200.49 384.56   A 0.82 0.82 0.0 0 0 201.31 385.45   L 210.96 385.45   A 1.37 1.37 0.0 0 0 212.26 384.51   C 213.72 380.17 215.44 373.62 217.24 368.74   Q 227.34 341.38 234.63 313.79   A 0.64 0.64 0.0 0 0 234.01 312.99   Z   M 196.08 324.31   A 0.67 0.67 0.0 0 0 195.07 323.73   L 162.88 343.02   A 1.94 1.92 74.7 0 0 161.94 344.68   L 161.94 353.76   A 2.20 2.18 15.7 0 0 163.00 355.63   L 195.41 375.12   A 0.60 0.60 0.0 0 0 196.32 374.61   Q 196.42 369.62 196.34 365.50   Q 196.28 362.85 194.11 361.64   Q 185.21 356.66 174.55 350.33   A 0.62 0.61 -46.9 0 1 174.52 349.29   Q 186.06 341.41 195.17 336.74   A 1.69 1.68 76.4 0 0 196.08 335.24   L 196.08 324.31   Z   M 239.87 375.01   Q 240.86 374.62 243.23 373.23   Q 245.43 371.95 271.44 355.70   Q 273.06 354.69 273.03 352.75   Q 272.96 347.99 272.77 344.11   A 2.47 2.47 0.0 0 0 271.54 342.10   L 240.44 324.14   A 0.65 0.64 15.3 0 0 239.47 324.69   Q 239.39 329.72 239.16 333.78   Q 239.05 335.57 241.23 336.79   Q 255.02 344.53 260.71 347.99   A 1.16 1.15 45.6 0 1 260.69 349.97   Q 256.07 352.65 240.47 362.23   Q 238.90 363.19 238.96 365.73   Q 239.14 373.88 239.12 374.47   A 0.56 0.55 80.6 0 0 239.87 375.01   Z   M 160.7520 404.1790   A 1.73 1.73 0.0 0 0 159.0190 402.4520   L 149.8590 402.4680   A 1.73 1.73 0.0 0 0 148.1320 404.2010   L 148.1480 413.3610   A 1.73 1.73 0.0 0 0 149.8810 415.0880   L 159.0410 415.0720   A 1.73 1.73 0.0 0 0 160.7680 413.3390   L 160.7520 404.1790   Z   M 181.24 403.60   A 1.24 1.24 0.0 0 0 180.00 402.36   L 169.66 402.36   A 1.24 1.24 0.0 0 0 168.42 403.60   L 168.42 413.94   A 1.24 1.24 0.0 0 0 169.66 415.18   L 180.00 415.18   A 1.24 1.24 0.0 0 0 181.24 413.94   L 181.24 403.60   Z   M 160.7216 424.3590   A 1.66 1.66 0.0 0 0 159.0587 422.7019   L 149.7987 422.7181   A 1.66 1.66 0.0 0 0 148.1416 424.3810   L 148.1584 433.9810   A 1.66 1.66 0.0 0 0 149.8213 435.6381   L 159.0813 435.6219   A 1.66 1.66 0.0 0 0 160.7384 433.9590   L 160.7216 424.3590   Z   M 181.1617 423.7762   A 1.08 1.08 0.0 0 0 180.0761 422.7019   L 169.3162 422.7583   A 1.08 1.08 0.0 0 0 168.2419 423.8439   L 168.2983 434.6038   A 1.08 1.08 0.0 0 0 169.3839 435.6781   L 180.1438 435.6217   A 1.08 1.08 0.0 0 0 181.2181 434.5361   L 181.1617 423.7762   Z   M 213.5406 423.8098   A 0.99 0.99 0.0 0 0 212.5488 422.8215   L 191.3689 422.8585   A 0.99 0.99 0.0 0 0 190.3806 423.8502   L 190.3994 434.6302   A 0.99 0.99 0.0 0 0 191.3912 435.6185   L 212.5711 435.5815   A 0.99 0.99 0.0 0 0 213.5594 434.5898   L 213.5406 423.8098   Z   M 258.8715 423.8973   A 1.11 1.11 0.0 0 0 257.7577 422.7912   L 224.0579 422.9089   A 1.11 1.11 0.0 0 0 222.9517 424.0227   L 222.9885 434.5427   A 1.11 1.11 0.0 0 0 224.1023 435.6488   L 257.8021 435.5311   A 1.11 1.11 0.0 0 0 258.9083 434.4173   L 258.8715 423.8973   Z   M 127.8670 458.2953   A 1.72 1.72 0.0 0 0 126.1351 456.5873   L 116.7353 456.6530   A 1.72 1.72 0.0 0 0 115.0273 458.3849   L 115.0930 467.7847   A 1.72 1.72 0.0 0 0 116.8249 469.4927   L 126.2247 469.4270   A 1.72 1.72 0.0 0 0 127.9327 467.6951   L 127.8670 458.2953   Z   M 150.0087 458.0410   A 1.32 1.32 0.0 0 0 148.6910 456.7187   L 138.7110 456.7013   A 1.32 1.32 0.0 0 0 137.3887 458.0190   L 137.3713 467.9990   A 1.32 1.32 0.0 0 0 138.6890 469.3213   L 148.6690 469.3387   A 1.32 1.32 0.0 0 0 149.9913 468.0210   L 150.0087 458.0410   Z   M 172.7672 458.1820   A 1.33 1.33 0.0 0 0 171.4419 456.8473   L 161.5420 456.8128   A 1.33 1.33 0.0 0 0 160.2073 458.1381   L 160.1728 468.0380   A 1.33 1.33 0.0 0 0 161.4981 469.3727   L 171.3980 469.4072   A 1.33 1.33 0.0 0 0 172.7327 468.0819   L 172.7672 458.1820   Z   M 295.8073 476.0702   A 0.79 0.79 0.0 0 0 295.0201 475.2774   L 279.3402 475.2227   A 0.79 0.79 0.0 0 0 278.5474 476.0099   L 278.4927 491.6898   A 0.79 0.79 0.0 0 0 279.2799 492.4826   L 294.9598 492.5373   A 0.79 0.79 0.0 0 0 295.7526 491.7501   L 295.8073 476.0702   Z   M 186.43 542.20   Q 192.82 542.19 199.46 542.28   A 0.96 0.95 80.0 0 1 200.34 542.90   L 205.23 555.85   A 2.06 2.04 -10.3 0 0 207.15 557.17   L 222.23 557.17   A 0.72 0.72 0.0 0 0 222.93 556.28   C 221.40 550.09 217.95 543.28 216.00 538.25   Q 208.01 517.63 195.43 486.71   A 2.19 2.18 79.6 0 0 193.47 485.35   Q 190.49 485.27 186.36 485.28   Q 182.24 485.28 179.26 485.37   A 2.19 2.18 -79.7 0 0 177.30 486.73   Q 164.79 517.68 156.85 538.32   C 154.91 543.35 151.47 550.17 149.96 556.36   A 0.72 0.72 0.0 0 0 150.66 557.25   L 165.74 557.22   A 2.06 2.04 10.2 0 0 167.66 555.89   L 172.52 542.93   A 0.96 0.95 -80.1 0 1 173.39 542.31   Q 180.04 542.21 186.43 542.20   Z   M 246.7711 486.2245   A 0.89 0.89 0.0 0 0 245.8827 485.3329   L 231.1227 485.3072   A 0.89 0.89 0.0 0 0 230.2311 486.1956   L 230.1089 556.2355   A 0.89 0.89 0.0 0 0 230.9973 557.1271   L 245.7573 557.1528   A 0.89 0.89 0.0 0 0 246.6489 556.2644   L 246.7711 486.2245   Z   M 315.0114 578.9297   A 1.34 1.34 0.0 0 0 313.6690 577.5921   L 304.5891 577.6079   A 1.34 1.34 0.0 0 0 303.2514 578.9503   L 303.2686 588.8103   A 1.34 1.34 0.0 0 0 304.6110 590.1479   L 313.6909 590.1321   A 1.34 1.34 0.0 0 0 315.0286 588.7897   L 315.0114 578.9297   Z   M 335.1426 578.5276   A 0.95 0.95 0.0 0 0 334.1860 577.5843   L 323.9063 577.6560   A 0.95 0.95 0.0 0 0 322.9629 578.6126   L 323.0374 589.2724   A 0.95 0.95 0.0 0 0 323.9940 590.2157   L 334.2737 590.1440   A 0.95 0.95 0.0 0 0 335.2171 589.1874   L 335.1426 578.5276   Z   M 294.8025 599.2969   A 1.26 1.26 0.0 0 0 293.5359 598.0435   L 283.3760 598.0967   A 1.26 1.26 0.0 0 0 282.1227 599.3633   L 282.1775 609.8431   A 1.26 1.26 0.0 0 0 283.4441 611.0965   L 293.6040 611.0433   A 1.26 1.26 0.0 0 0 294.8573 609.7767   L 294.8025 599.2969   Z   M 315.0078 599.3408   A 1.18 1.18 0.0 0 0 313.8319 598.1567   L 304.2720 598.1234   A 1.18 1.18 0.0 0 0 303.0878 599.2992   L 303.0522 609.4992   A 1.18 1.18 0.0 0 0 304.2281 610.6833   L 313.7880 610.7166   A 1.18 1.18 0.0 0 0 314.9722 609.5408   L 315.0078 599.3408   Z   M 335.3779 599.3017   A 1.06 1.06 0.0 0 0 334.3216 598.2380   L 324.0417 598.2021   A 1.06 1.06 0.0 0 0 322.9780 599.2584   L 322.9421 609.5383   A 1.06 1.06 0.0 0 0 323.9984 610.6020   L 334.2783 610.6379   A 1.06 1.06 0.0 0 0 335.3420 609.5816   L 335.3779 599.3017   Z   M 355.8674 599.3928   A 1.21 1.21 0.0 0 0 354.6637 598.1765   L 344.5838 598.1237   A 1.21 1.21 0.0 0 0 343.3675 599.3273   L 343.3126 609.8072   A 1.21 1.21 0.0 0 0 344.5163 611.0235   L 354.5962 611.0763   A 1.21 1.21 0.0 0 0 355.8125 609.8727   L 355.8674 599.3928   Z   M 315.1462 619.4620   A 1.28 1.28 0.0 0 0 313.8751 618.1731   L 304.4354 618.1072   A 1.28 1.28 0.0 0 0 303.1464 619.3782   L 303.0738 629.7780   A 1.28 1.28 0.0 0 0 304.3449 631.0669   L 313.7846 631.1328   A 1.28 1.28 0.0 0 0 315.0736 629.8618   L 315.1462 619.4620   Z   M 335.3383 619.3416   A 1.18 1.18 0.0 0 0 334.1624 618.1575   L 324.1625 618.1226   A 1.18 1.18 0.0 0 0 322.9784 619.2985   L 322.9417 629.7984   A 1.18 1.18 0.0 0 0 324.1176 630.9825   L 334.1175 631.0174   A 1.18 1.18 0.0 0 0 335.3016 629.8415   L 335.3383 619.3416   Z   M 274.7965 640.5522   A 1.59 1.59 0.0 0 0 273.2121 638.9566   L 263.7122 638.9235   A 1.59 1.59 0.0 0 0 262.1166 640.5079   L 262.0835 650.0078   A 1.59 1.59 0.0 0 0 263.6679 651.6034   L 273.1678 651.6365   A 1.59 1.59 0.0 0 0 274.7634 650.0521   L 274.7965 640.5522   Z   M 295.0412 640.2187   A 1.42 1.42 0.0 0 0 293.6187 638.8012   L 283.4987 638.8188   A 1.42 1.42 0.0 0 0 282.0812 640.2413   L 282.0988 650.3613   A 1.42 1.42 0.0 0 0 283.5213 651.7788   L 293.6413 651.7612   A 1.42 1.42 0.0 0 0 295.0588 650.3387   L 295.0412 640.2187   Z"/>
<path xmlns="http://www.w3.org/2000/svg" fill="#000000" d="   M 347.40 545.76   Q 347.46 545.15 348.25 545.16   Q 369.84 545.24 388.60 545.01   A 1.08 1.07 -0.5 0 0 389.66 543.94   L 389.66 533.95   A 1.05 1.05 0.0 0 0 388.61 532.90   L 340.85 533.07   L 324.32 500.04   Q 324.23 499.79 324.47 499.50   A 0.38 0.36 -66.5 0 1 324.73 499.39   L 380.32 499.39   A 0.97 0.97 0.0 0 0 381.29 498.42   L 381.29 488.49   A 1.28 1.28 0.0 0 0 380.01 487.21   L 338.24 487.21   A 0.41 0.41 0.0 0 1 337.94 486.51   Q 367.38 456.83 399.47 424.72   C 408.44 415.74 414.94 409.56 419.01 405.02   Q 420.41 403.45 421.76 403.45   Q 457.57 403.38 481.20 403.41   A 0.92 0.91 -0.0 0 0 482.12 402.50   L 482.12 392.21   A 0.80 0.80 0.0 0 0 481.32 391.41   L 418.02 391.41   A 3.38 3.38 0.0 0 0 415.63 392.40   Q 371.30 436.52 319.76 488.27   Q 319.55 488.48 318.98 488.45   Q 318.95 487.62 318.63 486.80   Q 310.71 466.70 307.74 450.75   Q 305.74 440.00 303.69 429.26   Q 303.38 427.59 303.35 424.43   L 307.26 421.85   A 4.00 3.95 -61.4 0 1 309.45 421.19   L 322.87 421.19   A 0.81 0.81 0.0 0 0 323.68 420.38   L 323.68 410.03   A 0.65 0.64 0.0 0 0 323.03 409.39   L 301.95 409.53   L 301.41 393.64   Q 344.05 393.33 387.00 393.45   Q 390.06 393.46 392.64 390.92   Q 400.80 382.92 407.91 375.33   A 3.58 3.58 0.0 0 1 410.52 374.20   L 454.41 374.20   A 0.74 0.73 90.0 0 0 455.14 373.46   L 455.14 362.57   A 0.51 0.51 0.0 0 0 454.63 362.06   L 406.47 362.06   A 3.70 3.69 22.5 0 0 403.86 363.14   L 385.94 381.06   A 2.97 2.96 -67.2 0 1 383.82 381.93   L 301.29 381.43   Q 301.52 366.42 303.63 351.52   Q 304.73 343.74 305.83 335.96   Q 306.31 335.72 306.79 336.20   Q 320.20 349.47 334.69 364.26   A 3.71 3.67 -21.8 0 0 337.30 365.36   Q 356.16 365.40 378.97 365.37   C 382.68 365.37 384.28 365.67 386.76 363.27   Q 397.90 352.52 407.67 342.16   Q 410.74 338.91 412.71 338.89   C 420.58 338.81 428.29 338.85 436.66 339.37   A 1.70 1.64 -20.8 0 1 437.69 339.81   Q 438.84 340.87 440.22 341.05   Q 447.94 342.10 454.44 341.85   A 0.68 0.68 0.0 0 0 455.10 341.17   L 455.10 324.80   A 0.84 0.84 0.0 0 0 454.31 323.96   Q 446.19 323.50 439.76 325.05   C 430.75 327.23 422.60 326.95 408.69 326.87   A 4.25 4.21 -67.0 0 0 405.69 328.10   L 379.92 353.87   A 0.65 0.62 -66.6 0 1 379.47 354.06   L 342.00 354.06   A 2.44 2.42 -22.3 0 1 340.28 353.35   L 311.11 324.18   A 0.13 0.03 39.0 0 1 311.07 324.13   L 310.42 323.01   Q 310.29 321.85 310.58 320.67   Q 310.88 319.65 312.25 319.65   Q 337.23 319.65 363.28 319.57   C 365.74 319.56 366.95 319.25 368.58 317.58   Q 377.42 308.48 377.84 308.10   Q 380.73 305.47 382.06 305.46   Q 404.95 305.28 423.02 305.41   Q 425.70 305.43 432.70 305.99   C 439.68 306.55 446.37 308.57 453.83 308.45   A 1.31 1.30 -0.4 0 0 455.12 307.15   L 455.12 290.27   A 0.46 0.46 0.0 0 0 454.63 289.81   L 440.04 290.72   A 1.96 1.90 19.7 0 0 438.79 291.29   L 437.73 292.34   A 1.32 1.31 20.1 0 1 436.91 292.72   Q 429.18 293.27 418.87 293.34   Q 395.07 293.51 380.52 293.20   Q 377.20 293.13 374.88 295.40   Q 369.91 300.28 364.53 306.34   A 3.77 3.75 20.6 0 1 361.71 307.61   L 314.97 307.69   C 320.87 291.61 327.42 279.21 338.61 266.52   C 346.59 257.47 357.68 249.67 368.18 244.42   A 4.10 4.09 84.4 0 0 370.32 241.81   C 377.90 213.63 404.96 195.13 430.20 183.94   Q 443.62 177.98 459.77 174.54   Q 483.20 169.53 501.52 168.83   C 528.55 167.79 555.78 170.30 582.83 174.75   C 594.12 176.61 609.46 178.84 620.48 180.17   Q 655.86 184.41 688.68 173.38   Q 691.01 172.59 693.10 171.50   A 0.51 0.51 0.0 0 1 693.84 172.05   C 692.21 179.61 688.43 189.09 681.97 193.91   A 0.39 0.39 0.0 0 0 682.31 194.60   Q 685.66 193.63 689.70 192.90   C 700.39 190.95 711.30 186.89 720.02 179.96   C 722.60 177.91 724.04 175.85 726.53 172.79   A 0.71 0.70 -54.6 0 1 727.44 172.63   C 734.98 177.16 739.78 183.58 744.69 190.86   Q 754.70 205.70 757.25 224.52   Q 757.93 229.57 757.75 239.50   C 757.56 249.81 755.15 260.33 749.95 270.05   Q 745.37 278.61 740.09 285.32   C 738.67 287.12 739.01 288.20 740.09 290.24   Q 748.73 306.69 751.82 316.69   C 759.71 342.27 765.90 359.63 774.34 385.17   Q 777.00 393.21 777.46 395.86   A 12.15 11.96 40.5 0 1 777.62 397.69   Q 777.63 404.06 775.18 410.72   A 0.55 0.54 -82.3 0 0 775.73 411.45   Q 791.03 410.17 803.12 418.88   A 6.32 6.30 11.9 0 1 805.60 422.67   Q 806.30 425.90 806.29 430.01   C 806.27 442.36 804.92 452.55 803.28 468.50   Q 801.85 482.39 798.59 495.06   C 797.72 498.48 800.45 503.07 802.44 506.58   C 806.40 513.54 809.89 518.86 811.36 525.43   Q 815.51 543.87 799.33 555.29   Q 798.44 555.92 790.20 560.04   C 785.62 562.32 780.35 563.39 775.46 565.32   A 4.11 4.10 85.2 0 0 772.97 568.27   C 771.72 574.19 774.61 582.21 777.50 590.50   C 779.96 597.57 773.92 606.66 769.37 611.91   A 1.92 1.91 -37.1 0 0 769.08 613.97   C 772.26 620.74 774.71 626.69 771.14 634.23   Q 768.45 639.90 764.29 645.25   C 761.39 648.97 761.12 651.71 762.63 656.61   Q 766.18 668.12 766.67 676.52   C 767.49 690.36 762.06 706.43 751.72 715.75   C 740.72 725.66 725.34 730.59 710.76 730.75   Q 696.65 730.91 682.64 730.05   Q 670.12 729.29 660.97 729.64   C 646.21 730.20 638.93 740.82 635.65 753.92   Q 635.60 754.13 631.01 772.99   Q 630.79 773.90 627.18 782.10   Q 625.55 785.80 622.25 790.60   Q 614.96 801.18 604.71 820.38   C 598.60 831.83 593.38 846.02 586.86 858.44   A 0.64 0.64 0.0 0 1 585.86 858.62   Q 582.48 855.55 579.54 853.45   Q 534.33 821.07 524.76 814.49   C 489.31 790.10 452.74 765.89 413.84 746.53   Q 406.21 742.74 400.78 740.49   C 393.96 737.67 389.07 735.07 383.20 732.81   Q 377.12 730.47 366.01 726.28   A 1.26 1.26 0.0 0 1 365.29 724.62   Q 374.63 701.89 380.21 675.73   Q 381.95 667.61 384.34 652.21   Q 385.63 643.93 385.28 636.04   A 5.51 5.40 -59.4 0 0 384.77 633.97   C 381.42 626.83 379.34 618.40 375.50 605.25   C 373.79 599.40 370.18 590.57 366.84 583.63   Q 360.66 570.77 352.69 555.28   Q 350.20 550.45 347.40 545.76   Z   M 434.3209 262.1987   A 0.91 0.91 0.0 0 0 433.4077 261.2919   L 423.0278 261.3282   A 0.91 0.91 0.0 0 0 422.1209 262.2413   L 422.1591 273.1813   A 0.91 0.91 0.0 0 0 423.0723 274.0881   L 433.4522 274.0518   A 0.91 0.91 0.0 0 0 434.3591 273.1387   L 434.3209 262.1987   Z   M 455.0750 262.4279   A 1.08 1.08 0.0 0 0 453.9856 261.3574   L 444.1660 261.4431   A 1.08 1.08 0.0 0 0 443.0955 262.5325   L 443.1850 272.7921   A 1.08 1.08 0.0 0 0 444.2744 273.8626   L 454.0940 273.7769   A 1.08 1.08 0.0 0 0 455.1645 272.6875   L 455.0750 262.4279   Z   M 414.1596 262.3606   A 0.90 0.90 0.0 0 0 413.2612 261.4591   L 402.8812 261.4410   A 0.90 0.90 0.0 0 0 401.9796 262.3394   L 401.9604 273.3594   A 0.90 0.90 0.0 0 0 402.8588 274.2609   L 413.2388 274.2790   A 0.90 0.90 0.0 0 0 414.1404 273.3806   L 414.1596 262.3606   Z   M 554.63 418.98   Q 556.38 418.80 581.97 415.70   Q 591.19 414.58 609.30 412.71   Q 638.81 409.67 642.77 409.05   Q 647.53 408.30 651.22 405.97   C 659.65 400.63 664.99 396.96 670.80 394.71   Q 674.70 393.20 675.85 392.65   C 682.81 389.28 690.64 388.61 698.46 389.34   Q 714.42 390.85 730.49 395.30   C 734.86 396.51 739.52 398.68 741.46 403.01   C 742.08 404.39 742.07 406.51 742.36 407.83   A 3.68 3.58 19.5 0 0 743.13 409.39   Q 746.68 413.60 751.98 416.42   A 1.75 1.70 -36.7 0 0 753.17 416.58   Q 755.96 415.95 756.69 413.89   Q 757.47 411.67 759.21 405.97   Q 761.25 399.26 759.08 392.67   C 756.66 385.31 754.42 377.13 751.03 367.55   C 746.20 353.96 743.27 345.37 739.21 331.62   Q 733.69 312.88 723.47 294.85   Q 721.78 291.88 719.79 290.46   C 717.05 288.52 712.00 286.45 708.24 285.13   Q 680.74 275.49 650.74 274.91   Q 634.71 274.61 619.69 279.20   C 596.51 286.29 582.88 307.75 589.58 331.80   Q 594.41 349.12 595.84 367.28   A 2.96 2.96 0.0 0 1 594.27 370.14   C 575.03 380.31 559.30 396.44 553.76 417.98   A 0.81 0.80 4.2 0 0 554.63 418.98   Z   M 532.75 342.25   A 0.53 0.53 0.0 0 0 533.19 341.53   Q 524.13 318.29 518.75 305.05   Q 513.80 292.89 510.21 281.95   A 1.97 1.96 -9.0 0 0 508.34 280.59   L 495.93 280.59   A 0.97 0.93 20.3 0 0 495.22 280.90   Q 493.98 282.25 493.22 284.28   Q 480.94 316.89 471.36 341.03   A 0.96 0.96 0.0 0 0 472.22 342.35   Q 475.82 342.48 482.10 342.32   C 483.72 342.28 485.05 342.65 485.79 340.76   Q 486.83 338.08 489.63 329.26   A 0.68 0.68 0.0 0 1 490.28 328.78   L 512.98 328.78   A 1.36 1.34 -9.3 0 1 514.26 329.69   Q 515.83 334.19 517.63 340.08   Q 518.41 342.64 520.69 342.54   C 525.07 342.34 529.20 342.58 532.75 342.25   Z   M 552.90 281.88   A 1.23 1.23 0.0 0 0 551.67 280.65   L 540.19 280.65   A 1.23 1.23 0.0 0 0 538.96 281.88   L 538.96 341.06   A 1.23 1.23 0.0 0 0 540.19 342.29   L 551.67 342.29   A 1.23 1.23 0.0 0 0 552.90 341.06   L 552.90 281.88   Z   M 483.7374 363.4018   A 1.25 1.25 0.0 0 0 482.4918 362.1474   L 472.5318 362.1127   A 1.25 1.25 0.0 0 0 471.2775 363.3583   L 471.2426 373.3382   A 1.25 1.25 0.0 0 0 472.4882 374.5926   L 482.4482 374.6273   A 1.25 1.25 0.0 0 0 483.7025 373.3817   L 483.7374 363.4018   Z   M 504.5814 363.2994   A 1.12 1.12 0.0 0 0 503.4594 362.1814   L 493.5994 362.1986   A 1.12 1.12 0.0 0 0 492.4814 363.3206   L 492.4986 373.1806   A 1.12 1.12 0.0 0 0 493.6206 374.2986   L 503.4806 374.2814   A 1.12 1.12 0.0 0 0 504.5986 373.1594   L 504.5814 363.2994   Z   M 525.4714 363.4593   A 1.25 1.25 0.0 0 0 524.2192 362.2115   L 514.4193 362.2286   A 1.25 1.25 0.0 0 0 513.1714 363.4807   L 513.1886 373.3007   A 1.25 1.25 0.0 0 0 514.4408 374.5485   L 524.2407 374.5314   A 1.25 1.25 0.0 0 0 525.4886 373.2793   L 525.4714 363.4593   Z   M 346.3716 410.5600   A 1.31 1.31 0.0 0 0 345.0593 409.2523   L 336.1794 409.2678   A 1.31 1.31 0.0 0 0 334.8716 410.5800   L 334.8884 420.1600   A 1.31 1.31 0.0 0 0 336.2007 421.4677   L 345.0806 421.4522   A 1.31 1.31 0.0 0 0 346.3884 420.1400   L 346.3716 410.5600   Z   M 367.87 410.69   A 1.25 1.25 0.0 0 0 366.62 409.44   L 356.98 409.44   A 1.25 1.25 0.0 0 0 355.73 410.69   L 355.73 420.33   A 1.25 1.25 0.0 0 0 356.98 421.58   L 366.62 421.58   A 1.25 1.25 0.0 0 0 367.87 420.33   L 367.87 410.69   Z   M 692.88 423.88   Q 691.56 429.40 691.33 439.75   Q 690.80 463.80 691.64 474.57   C 692.40 484.29 694.51 494.08 703.56 499.26   C 706.51 500.95 709.01 501.13 712.52 501.54   C 720.00 502.40 726.56 498.33 729.86 491.83   C 736.28 479.21 738.69 464.85 740.45 449.49   Q 741.04 444.37 741.00 436.74   C 740.95 423.59 732.69 418.24 721.08 415.25   Q 714.27 413.49 706.96 414.46   C 702.60 415.04 696.72 417.51 694.24 421.44   Q 692.99 423.43 692.88 423.88   Z   M 789.08 482.71   Q 789.53 474.18 791.19 463.99   Q 791.63 461.29 792.61 448.21   Q 792.86 444.86 792.74 440.80   C 792.55 434.90 792.30 428.51 786.53 426.61   Q 780.77 424.73 774.86 427.91   A 4.46 4.46 0.0 0 0 772.67 430.70   Q 770.19 440.29 770.32 450.97   A 6.94 6.90 35.4 0 0 770.70 453.17   Q 771.98 456.89 772.70 458.05   Q 782.82 474.53 787.97 482.99   A 0.60 0.60 0.0 0 0 789.08 482.71   Z   M 346.94 435.57   A 1.16 1.16 0.0 0 0 345.78 434.41   L 335.54 434.41   A 1.16 1.16 0.0 0 0 334.38 435.57   L 334.38 445.81   A 1.16 1.16 0.0 0 0 335.54 446.97   L 345.78 446.97   A 1.16 1.16 0.0 0 0 346.94 445.81   L 346.94 435.57   Z   M 754.08 455.97   Q 751.52 470.33 748.45 481.80   Q 744.02 498.41 740.17 503.68   C 732.32 514.42 719.81 516.97 706.90 515.39   Q 693.41 513.75 684.78 504.07   C 678.61 497.16 676.31 487.95 675.42 478.76   C 674.27 466.81 674.08 455.97 673.04 444.51   Q 672.77 441.52 668.97 436.14   A 2.52 2.47 -8.1 0 0 667.68 435.19   Q 664.90 434.29 661.74 434.61   Q 618.35 439.05 552.27 446.12   A 1.43 1.43 0.0 0 0 551.01 447.29   Q 550.04 452.77 549.75 458.25   Q 548.95 473.69 549.43 488.05   A 0.64 0.63 84.8 0 1 548.90 488.69   Q 538.74 490.24 522.67 492.29   C 519.99 492.63 517.01 493.57 514.52 493.96   A 0.74 0.73 77.3 0 1 513.69 493.43   C 510.12 480.55 505.27 462.55 491.93 456.11   Q 485.10 452.81 482.07 449.93   Q 469.02 437.50 451.91 436.32   C 430.90 434.86 414.56 450.83 410.01 470.27   Q 406.96 483.30 409.49 496.26   Q 417.14 535.47 449.31 559.51   Q 455.59 564.20 463.02 568.83   C 470.21 573.30 476.98 575.76 485.44 573.68   Q 495.67 571.16 501.14 562.21   A 0.59 0.58 52.4 0 1 502.20 562.35   C 504.81 571.01 504.47 582.37 496.65 588.34   C 487.76 595.13 475.24 595.46 465.37 591.76   C 459.93 589.73 453.74 586.70 448.90 583.09   Q 444.49 579.81 441.64 577.92   A 0.74 0.74 0.0 0 0 440.49 578.51   C 440.17 588.99 437.78 600.24 432.17 609.91   Q 428.44 616.34 419.13 624.63   Q 415.04 628.28 411.14 630.62   Q 409.29 631.72 409.26 634.26   C 409.01 653.36 405.50 671.37 401.13 690.70   Q 398.53 702.17 394.91 710.94   A 0.41 0.40 24.6 0 0 395.11 711.46   Q 400.69 714.16 420.77 723.56   Q 434.65 730.06 446.07 736.52   Q 471.48 750.89 490.49 763.15   Q 525.99 786.05 577.12 821.92   A 0.41 0.41 0.0 0 0 577.73 821.74   C 584.42 805.81 593.75 790.65 603.11 776.56   C 605.50 772.97 608.00 768.03 607.99 764.75   Q 607.98 760.39 606.46 758.78   Q 604.60 756.79 589.92 744.15   Q 584.74 739.68 581.96 736.83   C 575.11 729.82 570.33 725.64 564.67 719.09   Q 563.87 718.16 556.03 709.75   Q 546.68 699.69 535.77 686.42   Q 522.81 670.66 518.02 661.24   Q 504.55 634.74 508.76 603.70   A 0.42 0.42 0.0 0 1 509.57 603.61   Q 512.76 611.90 513.61 614.27   C 520.10 632.34 534.27 647.94 550.40 657.87   Q 562.63 665.39 579.22 671.30   C 592.51 676.04 606.44 681.65 619.68 685.81   Q 653.05 696.30 675.58 701.92   Q 685.78 704.47 695.31 705.98   C 712.88 708.76 733.71 708.61 743.27 690.54   C 748.97 679.77 744.93 667.46 741.53 655.94   A 4.09 4.02 -72.9 0 0 740.85 654.63   C 738.01 650.98 734.51 648.86 729.65 645.40   A 0.80 0.79 29.1 0 1 729.37 644.45   Q 730.22 642.37 731.61 637.47   C 732.21 635.37 733.61 633.28 735.77 633.32   Q 742.30 633.45 748.74 632.73   Q 751.60 632.41 753.55 630.33   Q 759.15 624.36 754.73 618.44   C 748.52 610.12 725.07 615.78 715.55 615.76   Q 708.81 615.75 695.62 615.32   A 0.41 0.41 0.0 0 1 695.27 614.71   L 701.97 603.11   A 0.60 0.60 0.0 0 1 702.68 602.85   Q 712.15 606.22 721.86 604.01   C 726.95 602.85 733.52 599.68 738.17 597.86   C 745.64 594.93 750.40 592.63 757.18 595.97   Q 758.31 596.53 759.56 595.96   Q 762.41 594.66 761.07 591.68   C 759.02 587.13 756.55 582.17 755.84 577.01   Q 754.66 568.46 756.87 560.17   A 0.79 0.78 -80.3 0 0 756.18 559.19   C 754.01 558.98 752.14 559.32 749.71 559.96   C 743.64 561.53 736.52 562.66 731.30 559.34   C 725.40 555.60 723.24 551.47 723.21 544.61   Q 723.16 535.44 729.81 529.26   A 0.48 0.48 0.0 0 1 730.59 529.76   Q 729.16 533.93 730.11 539.43   C 731.13 545.33 737.88 547.55 743.04 546.97   A 3.77 3.75 -59.3 0 0 743.97 546.73   Q 744.62 546.46 758.85 541.41   C 767.77 538.24 776.53 540.23 783.84 541.57   C 790.83 542.86 795.94 535.21 794.18 528.87   C 792.49 522.78 790.37 519.03 786.85 512.33   C 782.34 503.75 778.58 497.99 772.19 487.53   Q 770.14 484.19 768.10 480.25   C 765.38 475.02 761.86 470.07 759.00 464.63   Q 756.64 460.13 754.73 455.89   A 0.34 0.34 0.0 0 0 754.08 455.97   Z"/>
<rect xmlns="http://www.w3.org/2000/svg" fill="#43a0ed" x="-6.45" y="-6.45" transform="translate(302.95,238.72) rotate(0.1)" width="12.90" height="12.90" rx="1.48"/>
<rect xmlns="http://www.w3.org/2000/svg" fill="#43a0ed" x="-5.84" y="-6.13" transform="translate(323.24,238.75) rotate(0.2)" width="11.68" height="12.26" rx="1.13"/>
<rect xmlns="http://www.w3.org/2000/svg" fill="#43a0ed" x="-6.27" y="-6.27" transform="translate(343.44,238.76) rotate(0.2)" width="12.54" height="12.54" rx="1.55"/>
<path xmlns="http://www.w3.org/2000/svg" fill="#43a0ed" d="   M 314.97 307.69   L 361.71 307.61   A 3.77 3.75 20.6 0 0 364.53 306.34   Q 369.91 300.28 374.88 295.40   Q 377.20 293.13 380.52 293.20   Q 395.07 293.51 418.87 293.34   Q 429.18 293.27 436.91 292.72   A 1.32 1.31 20.1 0 0 437.73 292.34   L 438.79 291.29   A 1.96 1.90 19.7 0 1 440.04 290.72   L 454.63 289.81   A 0.46 0.46 0.0 0 1 455.12 290.27   L 455.12 307.15   A 1.31 1.30 -0.4 0 1 453.83 308.45   C 446.37 308.57 439.68 306.55 432.70 305.99   Q 425.70 305.43 423.02 305.41   Q 404.95 305.28 382.06 305.46   Q 380.73 305.47 377.84 308.10   Q 377.42 308.48 368.58 317.58   C 366.95 319.25 365.74 319.56 363.28 319.57   Q 337.23 319.65 312.25 319.65   Q 310.88 319.65 310.58 320.67   Q 309.44 319.07 307.48 319.80   A 0.64 0.64 0.0 0 0 307.14 320.72   Q 308.02 322.23 309.42 323.36   A 0.55 0.55 0.0 0 0 310.20 323.28   L 310.42 323.01   L 311.07 324.13   A 0.13 0.03 39.0 0 0 311.11 324.18   L 340.28 353.35   A 2.44 2.42 -22.3 0 0 342.00 354.06   L 379.47 354.06   A 0.65 0.62 -66.6 0 0 379.92 353.87   L 405.69 328.10   A 4.25 4.21 -67.0 0 1 408.69 326.87   C 422.60 326.95 430.75 327.23 439.76 325.05   Q 446.19 323.50 454.31 323.96   A 0.84 0.84 0.0 0 1 455.10 324.80   L 455.10 341.17   A 0.68 0.68 0.0 0 1 454.44 341.85   Q 447.94 342.10 440.22 341.05   Q 438.84 340.87 437.69 339.81   A 1.70 1.64 -20.8 0 0 436.66 339.37   C 428.29 338.85 420.58 338.81 412.71 338.89   Q 410.74 338.91 407.67 342.16   Q 397.90 352.52 386.76 363.27   C 384.28 365.67 382.68 365.37 378.97 365.37   Q 356.16 365.40 337.30 365.36   A 3.71 3.67 -21.8 0 1 334.69 364.26   Q 320.20 349.47 306.79 336.20   Q 306.31 335.72 305.83 335.96   Q 305.51 334.79 305.11 334.38   Q 276.69 305.52 251.67 280.57   C 244.17 273.08 238.07 266.51 230.13 259.12   Q 228.30 257.41 225.99 257.40   Q 206.90 257.26 190.90 257.38   A 1.51 1.51 0.0 0 1 189.50 255.28   Q 191.56 250.50 195.49 246.59   A 2.23 2.21 21.1 0 1 197.00 245.93   Q 211.89 245.42 230.04 245.22   Q 233.84 245.18 236.41 248.10   Q 242.06 254.51 249.29 261.70   Q 271.24 283.51 294.12 306.85   C 295.27 308.02 298.12 307.64 299.41 307.67   Q 307.17 307.82 314.97 307.69   Z"/>
<rect xmlns="http://www.w3.org/2000/svg" fill="#43a0ed" x="-6.47" y="-6.47" transform="translate(282.21,259.04) rotate(0.5)" width="12.94" height="12.94" rx="1.42"/>
<rect xmlns="http://www.w3.org/2000/svg" fill="#43a0ed" x="-6.41" y="-6.41" transform="translate(302.86,259.11) rotate(0.6)" width="12.82" height="12.82" rx="1.09"/>
<rect xmlns="http://www.w3.org/2000/svg" fill="#43a0ed" x="-6.10" y="-6.38" transform="translate(428.24,267.69) rotate(-0.2)" width="12.20" height="12.76" rx="0.91"/>
<rect xmlns="http://www.w3.org/2000/svg" fill="#43a0ed" x="-5.99" y="-6.21" transform="translate(449.13,267.61) rotate(-0.5)" width="11.98" height="12.42" rx="1.08"/>
<rect xmlns="http://www.w3.org/2000/svg" fill="#43a0ed" x="-6.09" y="-6.41" transform="translate(408.06,267.86) rotate(0.1)" width="12.18" height="12.82" rx="0.90"/>
<rect xmlns="http://www.w3.org/2000/svg" fill="#43a0ed" x="-6.32" y="-6.32" transform="translate(302.74,279.19) rotate(0.3)" width="12.64" height="12.64" rx="1.26"/>
<path xmlns="http://www.w3.org/2000/svg" fill="#ffffff" d="   M 554.63 418.98   A 0.81 0.80 4.2 0 1 553.76 417.98   C 559.30 396.44 575.03 380.31 594.27 370.14   A 2.96 2.96 0.0 0 0 595.84 367.28   Q 594.41 349.12 589.58 331.80   C 582.88 307.75 596.51 286.29 619.69 279.20   Q 634.71 274.61 650.74 274.91   Q 680.74 275.49 708.24 285.13   C 712.00 286.45 717.05 288.52 719.79 290.46   Q 721.78 291.88 723.47 294.85   Q 733.69 312.88 739.21 331.62   C 743.27 345.37 746.20 353.96 751.03 367.55   C 754.42 377.13 756.66 385.31 759.08 392.67   Q 761.25 399.26 759.21 405.97   Q 757.47 411.67 756.69 413.89   Q 755.96 415.95 753.17 416.58   A 1.75 1.70 -36.7 0 1 751.98 416.42   Q 746.68 413.60 743.13 409.39   A 3.68 3.58 19.5 0 1 742.36 407.83   C 742.07 406.51 742.08 404.39 741.46 403.01   C 739.52 398.68 734.86 396.51 730.49 395.30   Q 714.42 390.85 698.46 389.34   C 690.64 388.61 682.81 389.28 675.85 392.65   Q 674.70 393.20 670.80 394.71   C 664.99 396.96 659.65 400.63 651.22 405.97   Q 647.53 408.30 642.77 409.05   Q 638.81 409.67 609.30 412.71   Q 591.19 414.58 581.97 415.70   Q 556.38 418.80 554.63 418.98   Z"/>
<path xmlns="http://www.w3.org/2000/svg" fill="#43a0ed" d="   M 532.75 342.25   C 529.20 342.58 525.07 342.34 520.69 342.54   Q 518.41 342.64 517.63 340.08   Q 515.83 334.19 514.26 329.69   A 1.36 1.34 -9.3 0 0 512.98 328.78   L 490.28 328.78   A 0.68 0.68 0.0 0 0 489.63 329.26   Q 486.83 338.08 485.79 340.76   C 485.05 342.65 483.72 342.28 482.10 342.32   Q 475.82 342.48 472.22 342.35   A 0.96 0.96 0.0 0 1 471.36 341.03   Q 480.94 316.89 493.22 284.28   Q 493.98 282.25 495.22 280.90   A 0.97 0.93 20.3 0 1 495.93 280.59   L 508.34 280.59   A 1.97 1.96 -9.0 0 1 510.21 281.95   Q 513.80 292.89 518.75 305.05   Q 524.13 318.29 533.19 341.53   A 0.53 0.53 0.0 0 1 532.75 342.25   Z   M 502.29 296.86   A 0.32 0.32 0.0 0 0 501.69 296.87   L 494.68 317.15   A 0.32 0.32 0.0 0 0 494.98 317.57   L 509.65 317.57   A 0.32 0.32 0.0 0 0 509.95 317.14   L 502.29 296.86   Z"/>
<rect xmlns="http://www.w3.org/2000/svg" fill="#43a0ed" x="538.96" y="280.65" width="13.94" height="61.64" rx="1.23"/>
<path xmlns="http://www.w3.org/2000/svg" fill="#000000" d="   M 502.29 296.86   L 509.95 317.14   A 0.32 0.32 0.0 0 1 509.65 317.57   L 494.98 317.57   A 0.32 0.32 0.0 0 1 494.68 317.15   L 501.69 296.87   A 0.32 0.32 0.0 0 1 502.29 296.86   Z"/>
<path xmlns="http://www.w3.org/2000/svg" fill="#43a0ed" d="   M 234.01 312.99   A 0.64 0.64 0.0 0 1 234.63 313.79   Q 227.34 341.38 217.24 368.74   C 215.44 373.62 213.72 380.17 212.26 384.51   A 1.37 1.37 0.0 0 1 210.96 385.45   L 201.31 385.45   A 0.82 0.82 0.0 0 1 200.49 384.56   C 200.70 382.36 201.79 378.29 202.57 376.14   Q 207.65 362.00 209.86 354.27   Q 212.71 344.28 216.51 334.28   Q 217.58 331.46 223.37 314.18   A 1.75 1.74 -80.7 0 1 225.02 312.99   L 234.01 312.99   Z"/>
<path xmlns="http://www.w3.org/2000/svg" fill="#ffffff" d="   M 310.58 320.67   Q 310.29 321.85 310.42 323.01   L 310.20 323.28   A 0.55 0.55 0.0 0 1 309.42 323.36   Q 308.02 322.23 307.14 320.72   A 0.64 0.64 0.0 0 1 307.48 319.80   Q 309.44 319.07 310.58 320.67   Z"/>
<path xmlns="http://www.w3.org/2000/svg" fill="#43a0ed" d="   M 196.08 324.31   L 196.08 335.24   A 1.69 1.68 76.4 0 1 195.17 336.74   Q 186.06 341.41 174.52 349.29   A 0.62 0.61 -46.9 0 0 174.55 350.33   Q 185.21 356.66 194.11 361.64   Q 196.28 362.85 196.34 365.50   Q 196.42 369.62 196.32 374.61   A 0.60 0.60 0.0 0 1 195.41 375.12   L 163.00 355.63   A 2.20 2.18 15.7 0 1 161.94 353.76   L 161.94 344.68   A 1.94 1.92 74.7 0 1 162.88 343.02   L 195.07 323.73   A 0.67 0.67 0.0 0 1 196.08 324.31   Z"/>
<path xmlns="http://www.w3.org/2000/svg" fill="#43a0ed" d="   M 239.87 375.01   A 0.56 0.55 80.6 0 1 239.12 374.47   Q 239.14 373.88 238.96 365.73   Q 238.90 363.19 240.47 362.23   Q 256.07 352.65 260.69 349.97   A 1.16 1.15 45.6 0 0 260.71 347.99   Q 255.02 344.53 241.23 336.79   Q 239.05 335.57 239.16 333.78   Q 239.39 329.72 239.47 324.69   A 0.65 0.64 15.3 0 1 240.44 324.14   L 271.54 342.10   A 2.47 2.47 0.0 0 1 272.77 344.11   Q 272.96 347.99 273.03 352.75   Q 273.06 354.69 271.44 355.70   Q 245.43 371.95 243.23 373.23   Q 240.86 374.62 239.87 375.01   Z"/>
<path xmlns="http://www.w3.org/2000/svg" fill="#43a0ed" d="   M 301.41 393.64   L 286.16 393.86   A 4.31 4.29 21.3 0 0 283.12 395.19   Q 274.23 404.55 265.21 412.77   Q 262.97 414.81 261.29 414.81   Q 203.10 414.80 195.25 415.00   Q 193.22 415.05 191.50 414.83   A 1.20 1.19 -86.5 0 1 190.46 413.64   L 190.46 403.45   A 0.84 0.84 0.0 0 1 191.30 402.61   Q 220.18 402.58 257.50 402.76   Q 258.99 402.77 260.67 401.15   Q 268.48 393.65 278.15 384.15   Q 279.43 382.90 281.10 382.05   A 2.38 2.38 0.0 0 1 282.14 381.79   L 301.29 381.43   L 383.82 381.93   A 2.97 2.96 -67.2 0 0 385.94 381.06   L 403.86 363.14   A 3.70 3.69 22.5 0 1 406.47 362.06   L 454.63 362.06   A 0.51 0.51 0.0 0 1 455.14 362.57   L 455.14 373.46   A 0.74 0.73 90.0 0 1 454.41 374.20   L 410.52 374.20   A 3.58 3.58 0.0 0 0 407.91 375.33   Q 400.80 382.92 392.64 390.92   Q 390.06 393.46 387.00 393.45   Q 344.05 393.33 301.41 393.64   Z"/>
<rect xmlns="http://www.w3.org/2000/svg" fill="#43a0ed" x="-6.23" y="-6.24" transform="translate(477.49,368.37) rotate(0.2)" width="12.46" height="12.48" rx="1.25"/>
<rect xmlns="http://www.w3.org/2000/svg" fill="#43a0ed" x="-6.05" y="-6.05" transform="translate(498.54,368.24) rotate(-0.1)" width="12.10" height="12.10" rx="1.12"/>
<rect xmlns="http://www.w3.org/2000/svg" fill="#43a0ed" x="-6.15" y="-6.16" transform="translate(519.33,368.38) rotate(-0.1)" width="12.30" height="12.32" rx="1.25"/>
<path xmlns="http://www.w3.org/2000/svg" fill="#43a0ed" d="   M 324.32 500.04   Q 301.81 522.27 280.27 544.76   Q 278.04 547.09 275.47 544.88   Q 272.61 542.42 270.77 539.85   A 2.00 1.99 -40.6 0 1 270.97 537.29   L 318.98 488.45   Q 319.55 488.48 319.76 488.27   Q 371.30 436.52 415.63 392.40   A 3.38 3.38 0.0 0 1 418.02 391.41   L 481.32 391.41   A 0.80 0.80 0.0 0 1 482.12 392.21   L 482.12 402.50   A 0.92 0.91 0.0 0 1 481.20 403.41   Q 457.57 403.38 421.76 403.45   Q 420.41 403.45 419.01 405.02   C 414.94 409.56 408.44 415.74 399.47 424.72   Q 367.38 456.83 337.94 486.51   A 0.41 0.41 0.0 0 0 338.24 487.21   L 380.01 487.21   A 1.28 1.28 0.0 0 1 381.29 488.49   L 381.29 498.42   A 0.97 0.97 0.0 0 1 380.32 499.39   L 324.73 499.39   A 0.38 0.36 -66.5 0 0 324.47 499.50   Q 324.23 499.79 324.32 500.04   Z"/>
<rect xmlns="http://www.w3.org/2000/svg" fill="#43a0ed" x="-6.31" y="-6.31" transform="translate(154.45,408.77) rotate(-0.1)" width="12.62" height="12.62" rx="1.73"/>
<rect xmlns="http://www.w3.org/2000/svg" fill="#43a0ed" x="168.42" y="402.36" width="12.82" height="12.82" rx="1.24"/>
<path xmlns="http://www.w3.org/2000/svg" fill="#43a0ed" d="   M 303.35 424.43   Q 300.94 426.86 298.57 429.44   Q 295.67 432.61 293.81 434.46   Q 275.95 452.21 261.60 467.09   C 259.38 469.39 255.38 469.05 251.50 469.07   Q 214.50 469.21 184.87 469.05   A 1.23 1.22 -89.8 0 1 183.66 467.82   L 183.66 457.50   A 0.60 0.60 0.0 0 1 184.26 456.90   Q 214.42 457.10 253.24 457.01   Q 254.99 457.00 256.74 455.23   C 268.19 443.60 280.88 431.11 293.13 418.32   Q 297.39 413.87 301.95 409.53   L 323.03 409.39   A 0.65 0.64 -0.0 0 1 323.68 410.03   L 323.68 420.38   A 0.81 0.81 0.0 0 1 322.87 421.19   L 309.45 421.19   A 4.00 3.95 -61.4 0 0 307.26 421.85   L 303.35 424.43   Z"/>
<rect xmlns="http://www.w3.org/2000/svg" fill="#43a0ed" x="-5.75" y="-6.10" transform="translate(340.63,415.36) rotate(-0.1)" width="11.50" height="12.20" rx="1.31"/>
<rect xmlns="http://www.w3.org/2000/svg" fill="#43a0ed" x="355.73" y="409.44" width="12.14" height="12.14" rx="1.25"/>
<path xmlns="http://www.w3.org/2000/svg" fill="#ffffff" d="   M 692.88 423.88   Q 692.99 423.43 694.24 421.44   C 696.72 417.51 702.60 415.04 706.96 414.46   Q 714.27 413.49 721.08 415.25   C 732.69 418.24 740.95 423.59 741.00 436.74   Q 741.04 444.37 740.45 449.49   C 738.69 464.85 736.28 479.21 729.86 491.83   C 726.56 498.33 720.00 502.40 712.52 501.54   C 709.01 501.13 706.51 500.95 703.56 499.26   C 694.51 494.08 692.40 484.29 691.64 474.57   Q 690.80 463.80 691.33 439.75   Q 691.56 429.40 692.88 423.88   Z"/>
<rect xmlns="http://www.w3.org/2000/svg" fill="#43a0ed" x="-6.29" y="-6.46" transform="translate(154.44,429.17) rotate(-0.1)" width="12.58" height="12.92" rx="1.66"/>
<rect xmlns="http://www.w3.org/2000/svg" fill="#43a0ed" x="-6.46" y="-6.46" transform="translate(174.73,429.19) rotate(-0.3)" width="12.92" height="12.92" rx="1.08"/>
<rect xmlns="http://www.w3.org/2000/svg" fill="#43a0ed" x="-11.58" y="-6.38" transform="translate(201.97,429.22) rotate(-0.1)" width="23.16" height="12.76" rx="0.99"/>
<rect xmlns="http://www.w3.org/2000/svg" fill="#43a0ed" x="-17.96" y="-6.37" transform="translate(240.93,429.22) rotate(-0.2)" width="35.92" height="12.74" rx="1.11"/>
<path xmlns="http://www.w3.org/2000/svg" fill="#ffffff" d="   M 789.08 482.71   A 0.60 0.60 0.0 0 1 787.97 482.99   Q 782.82 474.53 772.70 458.05   Q 771.98 456.89 770.70 453.17   A 6.94 6.90 35.4 0 1 770.32 450.97   Q 770.19 440.29 772.67 430.70   A 4.46 4.46 0.0 0 1 774.86 427.91   Q 780.77 424.73 786.53 426.61   C 792.30 428.51 792.55 434.90 792.74 440.80   Q 792.86 444.86 792.61 448.21   Q 791.63 461.29 791.19 463.99   Q 789.53 474.18 789.08 482.71   Z"/>
<rect xmlns="http://www.w3.org/2000/svg" fill="#43a0ed" x="334.38" y="434.41" width="12.56" height="12.56" rx="1.16"/>
<path xmlns="http://www.w3.org/2000/svg" fill="#ffffff" d="   M 754.08 455.97   A 0.34 0.34 0.0 0 1 754.73 455.89   Q 756.64 460.13 759.00 464.63   C 761.86 470.07 765.38 475.02 768.10 480.25   Q 770.14 484.19 772.19 487.53   C 778.58 497.99 782.34 503.75 786.85 512.33   C 790.37 519.03 792.49 522.78 794.18 528.87   C 795.94 535.21 790.83 542.86 783.84 541.57   C 776.53 540.23 767.77 538.24 758.85 541.41   Q 744.62 546.46 743.97 546.73   A 3.77 3.75 -59.3 0 1 743.04 546.97   C 737.88 547.55 731.13 545.33 730.11 539.43   Q 729.16 533.93 730.59 529.76   A 0.48 0.48 0.0 0 0 729.81 529.26   Q 723.16 535.44 723.21 544.61   C 723.24 551.47 725.40 555.60 731.30 559.34   C 736.52 562.66 743.64 561.53 749.71 559.96   C 752.14 559.32 754.01 558.98 756.18 559.19   A 0.79 0.78 -80.3 0 1 756.87 560.17   Q 754.66 568.46 755.84 577.01   C 756.55 582.17 759.02 587.13 761.07 591.68   Q 762.41 594.66 759.56 595.96   Q 758.31 596.53 757.18 595.97   C 750.40 592.63 745.64 594.93 738.17 597.86   C 733.52 599.68 726.95 602.85 721.86 604.01   Q 712.15 606.22 702.68 602.85   A 0.60 0.60 0.0 0 0 701.97 603.11   L 695.27 614.71   A 0.41 0.41 0.0 0 0 695.62 615.32   Q 708.81 615.75 715.55 615.76   C 725.07 615.78 748.52 610.12 754.73 618.44   Q 759.15 624.36 753.55 630.33   Q 751.60 632.41 748.74 632.73   Q 742.30 633.45 735.77 633.32   C 733.61 633.28 732.21 635.37 731.61 637.47   Q 730.22 642.37 729.37 644.45   A 0.80 0.79 29.1 0 0 729.65 645.40   C 734.51 648.86 738.01 650.98 740.85 654.63   A 4.09 4.02 -72.9 0 1 741.53 655.94   C 744.93 667.46 748.97 679.77 743.27 690.54   C 733.71 708.61 712.88 708.76 695.31 705.98   Q 685.78 704.47 675.58 701.92   Q 653.05 696.30 619.68 685.81   C 606.44 681.65 592.51 676.04 579.22 671.30   Q 562.63 665.39 550.40 657.87   C 534.27 647.94 520.10 632.34 513.61 614.27   Q 512.76 611.90 509.57 603.61   A 0.42 0.42 0.0 0 0 508.76 603.70   Q 504.55 634.74 518.02 661.24   Q 522.81 670.66 535.77 686.42   Q 546.68 699.69 556.03 709.75   Q 563.87 718.16 564.67 719.09   C 570.33 725.64 575.11 729.82 581.96 736.83   Q 584.74 739.68 589.92 744.15   Q 604.60 756.79 606.46 758.78   Q 607.98 760.39 607.99 764.75   C 608.00 768.03 605.50 772.97 603.11 776.56   C 593.75 790.65 584.42 805.81 577.73 821.74   A 0.41 0.41 0.0 0 1 577.12 821.92   Q 525.99 786.05 490.49 763.15   Q 471.48 750.89 446.07 736.52   Q 434.65 730.06 420.77 723.56   Q 400.69 714.16 395.11 711.46   A 0.41 0.40 24.6 0 1 394.91 710.94   Q 398.53 702.17 401.13 690.70   C 405.50 671.37 409.01 653.36 409.26 634.26   Q 409.29 631.72 411.14 630.62   Q 415.04 628.28 419.13 624.63   Q 428.44 616.34 432.17 609.91   C 437.78 600.24 440.17 588.99 440.49 578.51   A 0.74 0.74 0.0 0 1 441.64 577.92   Q 444.49 579.81 448.90 583.09   C 453.74 586.70 459.93 589.73 465.37 591.76   C 475.24 595.46 487.76 595.13 496.65 588.34   C 504.47 582.37 504.81 571.01 502.20 562.35   A 0.59 0.58 52.4 0 0 501.14 562.21   Q 495.67 571.16 485.44 573.68   C 476.98 575.76 470.21 573.30 463.02 568.83   Q 455.59 564.20 449.31 559.51   Q 417.14 535.47 409.49 496.26   Q 406.96 483.30 410.01 470.27   C 414.56 450.83 430.90 434.86 451.91 436.32   Q 469.02 437.50 482.07 449.93   Q 485.10 452.81 491.93 456.11   C 505.27 462.55 510.12 480.55 513.69 493.43   A 0.74 0.73 77.3 0 0 514.52 493.96   C 517.01 493.57 519.99 492.63 522.67 492.29   Q 538.74 490.24 548.90 488.69   A 0.64 0.63 84.8 0 0 549.43 488.05   Q 548.95 473.69 549.75 458.25   Q 550.04 452.77 551.01 447.29   A 1.43 1.43 0.0 0 1 552.27 446.12   Q 618.35 439.05 661.74 434.61   Q 664.90 434.29 667.68 435.19   A 2.52 2.47 -8.1 0 1 668.97 436.14   Q 672.77 441.52 673.04 444.51   C 674.08 455.97 674.27 466.81 675.42 478.76   C 676.31 487.95 678.61 497.16 684.78 504.07   Q 693.41 513.75 706.90 515.39   C 719.81 516.97 732.32 514.42 740.17 503.68   Q 744.02 498.41 748.45 481.80   Q 751.52 470.33 754.08 455.97   Z   M 430.21 510.28   C 430.07 501.19 430.49 490.42 433.28 481.01   Q 435.30 474.19 441.41 470.66   C 452.40 464.30 462.44 474.56 467.31 483.50   Q 468.49 485.67 466.03 486.79   C 454.14 492.24 445.83 501.39 447.26 515.31   C 448.34 525.89 456.36 529.07 465.47 531.42   C 466.38 531.65 467.72 532.40 468.56 532.83   A 9.24 8.94 -9.5 0 1 470.43 534.12   C 475.39 538.55 479.67 542.19 486.74 541.05   C 491.32 540.31 493.43 535.48 491.60 531.24   C 489.53 526.44 485.64 523.10 482.94 519.63   C 475.77 510.41 480.10 500.48 480.70 490.41   Q 481.04 484.80 480.48 482.74   Q 478.10 473.91 477.40 472.37   C 471.87 460.20 462.70 453.24 449.01 452.64   C 434.71 452.01 424.60 464.98 423.17 477.98   C 422.06 488.02 424.80 500.93 429.48 510.45   A 0.39 0.38 31.6 0 0 430.21 510.28   Z"/>
<path xmlns="http://www.w3.org/2000/svg" fill="#000000" d="   M 430.21 510.28   A 0.39 0.38 31.6 0 1 429.48 510.45   C 424.80 500.93 422.06 488.02 423.17 477.98   C 424.60 464.98 434.71 452.01 449.01 452.64   C 462.70 453.24 471.87 460.20 477.40 472.37   Q 478.10 473.91 480.48 482.74   Q 481.04 484.80 480.70 490.41   C 480.10 500.48 475.77 510.41 482.94 519.63   C 485.64 523.10 489.53 526.44 491.60 531.24   C 493.43 535.48 491.32 540.31 486.74 541.05   C 479.67 542.19 475.39 538.55 470.43 534.12   A 9.24 8.94 -9.5 0 0 468.56 532.83   C 467.72 532.40 466.38 531.65 465.47 531.42   C 456.36 529.07 448.34 525.89 447.26 515.31   C 445.83 501.39 454.14 492.24 466.03 486.79   Q 468.49 485.67 467.31 483.50   C 462.44 474.56 452.40 464.30 441.41 470.66   Q 435.30 474.19 433.28 481.01   C 430.49 490.42 430.07 501.19 430.21 510.28   Z"/>
<rect xmlns="http://www.w3.org/2000/svg" fill="#43a0ed" x="-6.42" y="-6.42" transform="translate(121.48,463.04) rotate(-0.4)" width="12.84" height="12.84" rx="1.72"/>
<rect xmlns="http://www.w3.org/2000/svg" fill="#43a0ed" x="-6.31" y="-6.31" transform="translate(143.69,463.02) rotate(0.1)" width="12.62" height="12.62" rx="1.32"/>
<rect xmlns="http://www.w3.org/2000/svg" fill="#43a0ed" x="-6.28" y="-6.28" transform="translate(166.47,463.11) rotate(0.2)" width="12.56" height="12.56" rx="1.33"/>
<rect xmlns="http://www.w3.org/2000/svg" fill="#43a0ed" x="-8.63" y="-8.63" transform="translate(287.15,483.88) rotate(0.2)" width="17.26" height="17.26" rx="0.79"/>
<path xmlns="http://www.w3.org/2000/svg" fill="#43a0ed" d="   M 186.36 485.28   Q 190.49 485.27 193.47 485.35   A 2.19 2.18 79.6 0 1 195.43 486.71   Q 208.01 517.63 216.00 538.25   C 217.95 543.28 221.40 550.09 222.93 556.28   A 0.72 0.72 0.0 0 1 222.23 557.17   L 207.15 557.17   A 2.06 2.04 -10.3 0 1 205.23 555.85   L 200.34 542.90   A 0.96 0.95 80.0 0 0 199.46 542.28   Q 192.82 542.19 186.43 542.20   Q 180.04 542.21 173.39 542.31   A 0.96 0.95 -80.1 0 0 172.52 542.93   L 167.66 555.89   A 2.06 2.04 10.2 0 1 165.74 557.22   L 150.66 557.25   A 0.72 0.72 0.0 0 1 149.96 556.36   C 151.47 550.17 154.91 543.35 156.85 538.32   Q 164.79 517.68 177.30 486.73   A 2.19 2.18 -79.7 0 1 179.26 485.37   Q 182.24 485.28 186.36 485.28   Z   M 176.86 528.29   A 0.70 0.70 0.0 0 0 177.52 529.23   L 195.17 529.26   A 0.70 0.70 0.0 0 0 195.83 528.32   L 187.05 503.63   A 0.70 0.70 0.0 0 0 185.73 503.63   L 176.86 528.29   Z"/>
<rect xmlns="http://www.w3.org/2000/svg" fill="#43a0ed" x="-8.27" y="-35.91" transform="translate(238.44,521.23) rotate(0.1)" width="16.54" height="71.82" rx="0.89"/>
<path xmlns="http://www.w3.org/2000/svg" fill="#ffffff" d="   M 176.86 528.29   L 185.73 503.63   A 0.70 0.70 0.0 0 1 187.05 503.63   L 195.83 528.32   A 0.70 0.70 0.0 0 1 195.17 529.26   L 177.52 529.23   A 0.70 0.70 0.0 0 1 176.86 528.29   Z"/>
<path xmlns="http://www.w3.org/2000/svg" fill="#43a0ed" d="   M 340.85 533.07   L 388.61 532.90   A 1.05 1.05 0.0 0 1 389.66 533.95   L 389.66 543.94   A 1.08 1.07 -0.5 0 1 388.60 545.01   Q 369.84 545.24 348.25 545.16   Q 347.46 545.15 347.40 545.76   L 346.82 545.56   A 2.66 2.65 -36.2 0 0 345.83 545.41   Q 340.34 545.55 325.26 545.17   C 323.12 545.12 321.48 545.59 319.79 547.12   Q 316.72 549.89 314.45 552.20   Q 309.96 556.78 285.75 581.01   Q 282.94 583.81 279.30 583.80   Q 275.16 583.80 261.04 584.05   A 2.15 2.15 0.0 0 0 259.57 584.68   L 200.95 643.29   A 5.07 5.04 22.3 0 1 197.36 644.78   L 158.90 644.78   A 1.06 1.06 0.0 0 1 157.84 643.72   L 157.84 633.49   A 0.86 0.86 0.0 0 1 158.70 632.63   L 194.12 632.63   A 1.98 1.98 0.0 0 0 195.52 632.05   L 242.75 584.82   A 0.48 0.47 22.4 0 0 242.41 584.01   L 208.39 584.01   A 1.33 1.33 0.0 0 1 207.06 582.68   L 207.06 572.89   A 0.89 0.89 0.0 0 1 207.95 572.00   Q 239.66 572.03 275.26 572.08   Q 278.82 572.09 280.81 570.07   Q 303.87 546.67 315.84 534.85   Q 317.25 533.47 319.50 533.45   Q 330.34 533.35 340.85 533.07   Z"/>
<rect xmlns="http://www.w3.org/2000/svg" fill="#43a0ed" x="-5.88" y="-6.27" transform="translate(309.14,583.87) rotate(-0.1)" width="11.76" height="12.54" rx="1.34"/>
<rect xmlns="http://www.w3.org/2000/svg" fill="#43a0ed" x="-6.09" y="-6.28" transform="translate(329.09,583.90) rotate(-0.4)" width="12.18" height="12.56" rx="0.95"/>
<rect xmlns="http://www.w3.org/2000/svg" fill="#43a0ed" x="-6.34" y="-6.50" transform="translate(288.49,604.57) rotate(-0.3)" width="12.68" height="13.00" rx="1.26"/>
<rect xmlns="http://www.w3.org/2000/svg" fill="#43a0ed" x="-5.96" y="-6.28" transform="translate(309.03,604.42) rotate(0.2)" width="11.92" height="12.56" rx="1.18"/>
<rect xmlns="http://www.w3.org/2000/svg" fill="#43a0ed" x="-6.20" y="-6.20" transform="translate(329.16,604.42) rotate(0.2)" width="12.40" height="12.40" rx="1.06"/>
<rect xmlns="http://www.w3.org/2000/svg" fill="#43a0ed" x="-6.25" y="-6.45" transform="translate(349.59,604.60) rotate(0.3)" width="12.50" height="12.90" rx="1.21"/>
<rect xmlns="http://www.w3.org/2000/svg" fill="#43a0ed" x="-6.00" y="-6.48" transform="translate(309.11,624.62) rotate(0.4)" width="12.00" height="12.96" rx="1.28"/>
<rect xmlns="http://www.w3.org/2000/svg" fill="#43a0ed" x="-6.18" y="-6.43" transform="translate(329.14,624.57) rotate(0.2)" width="12.36" height="12.86" rx="1.18"/>
<rect xmlns="http://www.w3.org/2000/svg" fill="#43a0ed" x="-6.34" y="-6.34" transform="translate(268.44,645.28) rotate(0.2)" width="12.68" height="12.68" rx="1.59"/>
<rect xmlns="http://www.w3.org/2000/svg" fill="#43a0ed" x="-6.48" y="-6.48" transform="translate(288.57,645.29) rotate(-0.1)" width="12.96" height="12.96" rx="1.42"/>
</g></g></g></g></svg>