<svg xmlns="http://www.w3.org/2000/svg" viewBox="0 0 512 512"><path fill="currentColor" d="M407 177.6c7.6-24-13.4-46.8-37.4-41.7-22 4.7-28.8-28.1-7.1-32.8 50.1-10.8 92.3 37.1 76.5 84.8-6.8 21.2-38.7 10.8-32-10.3zM255.4 134c-70.9-4.3-132.6 40.5-137.3 101.6-4.7 62.2 51.1 116.7 123.7 121.1 76.2 4.6 143.6-41.4 148.1-103.3 4.6-62.6-57.4-115.4-134.5-119.4zm59.4 145.6c-6.3 31.4-39.1 53-73.8 48.5-30.6-4-50.3-28.1-46-54.1 4.3-26.3 30.5-44.9 59.2-42.7 30 2.4 57.3 25.7 60.6 48.3zm-137.1-82.3c13.4-3.4 15.7 14.8 2.7 18.1-12.7 3.2-16-14.6-2.7-18.1zm91.4 10.9c7.5 5.7 9.3 16.2 4.4 23.7-4.8 7.4-15.1 9.8-23 5.4-8.1-4.5-10.6-14.8-6-22.8 4.7-8.3 16.2-11.7 24.6-6.3z"/></svg>
